<?xml version="1.0" encoding="utf-8"?>
<!-- Generator: Adobe Illustrator 25.4.1, SVG Export Plug-In . SVG Version: 6.00 Build 0)  -->
<svg version="1.1" id="Layer_1" xmlns="http://www.w3.org/2000/svg" xmlns:xlink="http://www.w3.org/1999/xlink" x="0px" y="0px"
	 viewBox="0 0 1920 2165.3" style="enable-background:new 0 0 1920 2165.3;" xml:space="preserve">
<style type="text/css">
	.st0{fill:#1A1A1A;}
	.st1{fill:#FFFFFF;}
	.st2{fill:#F3F3F3;}
	.st3{fill:#FFD74B;}
	.st4{fill:#BFA138;}
	.st5{fill:#E6E6E6;}
	.st6{fill:#E9E9E9;}
	.st7{fill:none;}
	.st8{fill:#F2F2F2;}
	.st9{fill-rule:evenodd;clip-rule:evenodd;fill:#FFFFFF;}
	.st10{fill-rule:evenodd;clip-rule:evenodd;}
	.st11{fill-rule:evenodd;clip-rule:evenodd;stroke:#000000;stroke-width:0.9122;stroke-linejoin:round;stroke-miterlimit:10;}
	.st12{stroke:#000000;stroke-width:0.9122;stroke-linejoin:round;stroke-miterlimit:10;}
	.st13{opacity:0.65;}
	.st14{opacity:0.36;fill:#FFFFFF;}
	.st15{opacity:0.1;fill:#FFFFFF;}
	.st16{opacity:3.000000e-02;fill:#FFFFFF;}
	.st17{opacity:1.000000e-02;fill:#FFFFFF;}
	.st18{fill:#BCBCBC;}
	.st19{fill:#CCCCCC;}
	.st20{fill:#7F7F7F;}
	.st21{fill:#F4F4F4;}
	.st22{fill:#161616;}
	.st23{fill:#0E0E0E;}
	.st24{fill:#1C1C1C;}
	.st25{fill:#1E1E1E;}
	.st26{fill:#212121;}
	.st27{fill:#232323;}
	.st28{fill:#262626;}
	.st29{fill:#282828;}
	.st30{fill:#FCFCFC;}
	.st31{fill:#F6F6F6;}
	.st32{fill:#DEDEDE;}
	.st33{fill:#D4D4D4;}
	.st34{fill:#D0D0D0;}
	.st35{fill:#CECECE;}
	.st36{fill:#1E1B1B;}
</style>
<g>
	<rect x="-35.7" y="-17.8" width="1986.3" height="2215.3"/>
</g>
<g>
	<path class="st22" d="M1634,305.7c-9.3,2.6-19.4-6.8-28.3-8.5c-5-0.9-10.5-1.5-15.5,0.2c-2.5,0.9-4.5,2.2-6.7,3.6
		c-0.2,0.1-0.4,0.3-0.6,0.4c-3.2-6.8-8.2-11.7-16.6-13.4c-5.6-1.1-11-2.3-16.1-5c-3.7-1.9-7.3-4.6-11.5-4.9c-0.1,0-0.2,0-0.3,0
		c4.6,8.4,14.7,11.6,23.4,15.4c1.6,0.7,3.1,1.4,4.6,2.3c1,0.3,2,0.6,3,1c4.2,1.9,5.6,5.5,6.7,9.5c0.3,0.8,0.5,1.6,0.7,2.4
		c0.7,2.4,3.5,4.4,6.1,4c2.9-1.9,5.9-3.5,9.1-4.8c1.6-0.9,3.2-1.7,5-2c1.5-0.3,3-0.3,4.5-0.3c1.5-0.1,2.9-0.2,4.5,0
		c9.4,0.6,20.7,6.8,28.6-0.1C1634.3,305.6,1634.2,305.6,1634,305.7z"/>
	<path class="st22" d="M1661,347.9c0.5,0,1.1,0,1.6,0.1c2.3,0.4,3.5,2,4.5,3.8c0.2,0.4,0.5,0.7,0.6,1.1c0.7,1.1,2.3,1.7,3.5,1.2
		c1.2-1.3,2.5-2.5,3.9-3.5c0.7-0.6,1.4-1.2,2.2-1.6c0.7-0.3,1.4-0.5,2.2-0.7c0.7-0.2,1.4-0.4,2.2-0.6c4.7-0.9,11.1,0.7,14.2-3.7
		c-0.1,0-0.2,0-0.3,0.1c-4.3,2.5-10.5-0.9-15.1-0.6c-2.6,0.2-5.4,0.6-7.6,2.1c-1.1,0.7-1.9,1.7-2.9,2.7c-0.1,0.1-0.2,0.2-0.3,0.3
		c-2.4-2.9-5.5-4.7-9.9-4.5c-2.9,0.2-5.8,0.3-8.6-0.4c-2-0.5-4.2-1.4-6.3-1c0,0-0.1,0-0.1,0c3.3,3.6,8.7,3.8,13.5,4.6
		C1659.3,347.5,1660.1,347.7,1661,347.9z"/>
	<path class="st22" d="M1525.2,322.6c-2.5-0.6-5.3-1-7.9-0.3c-1.3,0.4-2.4,1-3.5,1.7c-0.1,0-0.2,0.1-0.3,0.2
		c-1.5-3.5-3.9-6.2-8.1-7.3c-2.8-0.7-5.6-1.5-8.1-3c-1.8-1.1-3.6-2.6-5.7-2.8c0,0-0.1,0-0.1,0c2.1,4.4,7.2,6.3,11.6,8.5
		c0.8,0.4,1.5,0.8,2.3,1.3c0.5,0.2,1,0.4,1.5,0.6c2.1,1.1,2.7,2.9,3.2,5c0.1,0.4,0.2,0.8,0.3,1.3c0.3,1.3,1.7,2.4,3,2.2
		c1.5-0.9,3.1-1.6,4.8-2.2c0.8-0.4,1.7-0.8,2.6-0.9c0.8-0.1,1.5-0.1,2.3,0c0.7,0,1.5,0,2.3,0.1c4.8,0.6,10.4,4,14.6,0.7
		c-0.1,0-0.2,0-0.3,0C1534.6,328.8,1529.7,323.7,1525.2,322.6z"/>
	<path class="st22" d="M1444,250.7c-4.1-0.2-8.6,0-12.3,1.9c-1.9,1-3.4,2.3-5,3.6c-0.2,0.1-0.3,0.3-0.5,0.4
		c-3.3-5.1-7.8-8.5-14.7-8.9c-4.6-0.3-9-0.7-13.4-2.3c-3.1-1.1-6.3-2.9-9.7-2.7c-0.1,0-0.2,0-0.2,0c4.6,6.2,12.9,7.6,20.3,9.8
		c1.3,0.4,2.7,0.8,3.9,1.4c0.8,0.1,1.7,0.3,2.5,0.5c3.6,1.1,5.1,3.8,6.4,6.8c0.3,0.6,0.6,1.2,0.8,1.9c0.8,1.9,3.3,3.2,5.3,2.5
		c2.1-1.8,4.4-3.5,6.7-4.8c1.2-0.9,2.4-1.7,3.8-2.1c1.2-0.4,2.4-0.6,3.5-0.7c1.2-0.2,2.3-0.4,3.6-0.5c7.5-0.5,17.3,3.3,22.9-3.2
		c-0.1,0-0.3,0-0.4,0.1C1460.3,257.5,1451.2,251.1,1444,250.7z"/>
	<path class="st22" d="M1493.5,285.2c0.5-0.1,0.9-0.1,1.3-0.1c1.9,0.1,3,1.2,4,2.5c0.2,0.3,0.4,0.6,0.6,0.8c0.7,0.8,2,1.1,2.9,0.6
		c0.8-1.2,1.7-2.3,2.7-3.2c0.5-0.6,1-1.1,1.6-1.5c0.5-0.3,1.1-0.6,1.7-0.8c0.5-0.3,1.1-0.5,1.7-0.7c3.7-1.2,8.9-0.6,10.9-4.5
		c-0.1,0-0.1,0-0.2,0.1c-3.1,2.4-8.5,0.4-12.1,1.2c-2.1,0.4-4.2,1.1-5.9,2.5c-0.8,0.7-1.4,1.5-2,2.4c-0.1,0.1-0.1,0.2-0.2,0.3
		c-2.3-2.1-4.9-3.2-8.4-2.6c-2.3,0.4-4.6,0.8-6.9,0.6c-1.7-0.2-3.5-0.6-5.1-0.1c0,0-0.1,0-0.1,0.1c3.1,2.5,7.4,2.1,11.3,2.2
		C1492.1,285.1,1492.8,285.1,1493.5,285.2z"/>
	<path class="st22" d="M1382.4,279.6c-2.1-0.2-4.3-0.2-6.3,0.6c-1,0.4-1.8,1.1-2.7,1.7c-0.1,0.1-0.1,0.1-0.2,0.2
		c-1.6-2.7-3.8-4.5-7.3-4.9c-2.3-0.3-4.6-0.6-6.8-1.5c-1.6-0.7-3.1-1.7-4.9-1.6c0,0-0.1,0-0.1,0c2.2,3.3,6.4,4.2,10.1,5.5
		c0.7,0.2,1.3,0.5,2,0.8c0.4,0.1,0.9,0.2,1.3,0.3c1.8,0.7,2.5,2.1,3.1,3.7c0.1,0.3,0.3,0.7,0.4,1c0.4,1,1.6,1.7,2.6,1.4
		c1.1-0.9,2.3-1.7,3.6-2.3c0.6-0.4,1.3-0.8,2-1c0.6-0.2,1.2-0.2,1.8-0.3c0.6-0.1,1.2-0.2,1.8-0.2c3.9-0.1,8.7,2.1,11.8-1
		c-0.1,0-0.2,0-0.2,0C1390.6,283.5,1386.1,280,1382.4,279.6z"/>
	<path class="st22" d="M1808.7,281.7c1.2,0.4,2.3,0.9,3.4,1.4c0.8,0.1,1.5,0.3,2.2,0.6c3.1,1.1,4.3,3.6,5.4,6.4
		c0.2,0.6,0.5,1.1,0.6,1.7c0.7,1.7,2.8,3,4.6,2.5c2-1.5,4.1-2.9,6.2-3.9c1.1-0.7,2.2-1.4,3.5-1.7c1.1-0.3,2.1-0.4,3.2-0.5
		c1-0.2,2.1-0.3,3.2-0.3c6.7-0.1,15.2,3.7,20.5-1.8c-0.1,0-0.3,0-0.4,0c-6.5,2.4-14.3-3.7-20.7-4.4c-3.7-0.4-7.6-0.4-11.1,1.1
		c-1.8,0.8-3.1,1.8-4.6,3c-0.2,0.1-0.3,0.2-0.4,0.3c-2.7-4.6-6.5-7.9-12.7-8.6c-4.1-0.5-8-1-11.9-2.6c-2.7-1.2-5.5-2.9-8.5-2.9
		c-0.1,0-0.1,0-0.2,0C1794.9,277.8,1802.2,279.4,1808.7,281.7z"/>
	<path class="st22" d="M1896.7,310.5c-1.9,0.3-3.8,0.8-5.3,2c-0.8,0.6-1.3,1.3-1.9,2.1c-0.1,0.1-0.1,0.2-0.2,0.2
		c-1.9-2-4.2-3.1-7.4-2.7c-2.1,0.3-4.1,0.5-6.2,0.2c-1.5-0.2-3.1-0.7-4.6-0.3c0,0-0.1,0-0.1,0c2.6,2.3,6.5,2.2,10,2.5
		c0.6,0.1,1.3,0.1,1.9,0.3c0.4,0,0.8,0,1.2,0c1.7,0.1,2.6,1.2,3.5,2.5c0.2,0.2,0.4,0.5,0.5,0.8c0.5,0.8,1.8,1.1,2.6,0.7
		c0.8-1,1.6-1.9,2.6-2.8c0.4-0.5,0.9-0.9,1.5-1.3c0.5-0.3,1-0.5,1.5-0.6c0.5-0.2,1-0.4,1.5-0.6c3.3-0.9,8-0.1,9.9-3.5
		c-0.1,0-0.1,0-0.2,0.1C1904.6,312.1,1900,310,1896.7,310.5z"/>
	<path class="st22" d="M1776.1,306.3c-0.1,0.1-0.2,0.1-0.2,0.2c-1.2-2.5-3.1-4.2-6.2-4.7c-2.1-0.4-4.1-0.7-6-1.7
		c-1.4-0.7-2.7-1.6-4.3-1.7c0,0-0.1,0-0.1,0c1.8,3,5.5,4,8.8,5.4c0.6,0.2,1.2,0.5,1.7,0.8c0.4,0.1,0.7,0.2,1.1,0.4
		c1.6,0.7,2.1,2,2.6,3.4c0.1,0.3,0.2,0.6,0.3,0.9c0.3,0.9,1.3,1.6,2.3,1.4c1-0.7,2.1-1.4,3.3-1.9c0.6-0.3,1.2-0.6,1.8-0.8
		c0.6-0.1,1.1-0.2,1.6-0.2c0.5-0.1,1.1-0.1,1.6-0.1c3.4,0.1,7.7,2.3,10.5-0.4c-0.1,0-0.1,0-0.2,0c-3.4,1.1-7.2-2.3-10.5-2.8
		c-1.9-0.3-3.9-0.4-5.7,0.3C1777.6,305.2,1776.9,305.8,1776.1,306.3z"/>
	<path class="st22" d="M1699.5,262c0.6,0,1.2,0.1,1.8,0.2c2.6,0.6,3.9,2.4,5,4.5c0.2,0.4,0.5,0.9,0.7,1.3c0.7,1.3,2.5,2.1,3.9,1.5
		c1.4-1.4,2.9-2.7,4.5-3.8c0.8-0.7,1.6-1.3,2.6-1.7c0.8-0.3,1.7-0.5,2.5-0.7c0.8-0.2,1.6-0.4,2.5-0.6c5.4-0.8,12.5,1.3,16.2-3.6
		c-0.1,0-0.2,0-0.3,0.1c-4.9,2.6-11.8-1.5-17-1.3c-3,0.1-6.1,0.5-8.7,2.1c-1.3,0.8-2.3,1.8-3.4,2.9c-0.1,0.1-0.2,0.2-0.3,0.3
		c-2.6-3.4-6-5.6-11-5.5c-3.3,0-6.5,0-9.7-0.8c-2.3-0.6-4.7-1.7-7.1-1.4c-0.1,0-0.1,0-0.2,0c3.7,4.2,9.7,4.7,15.1,5.8
		C1697.6,261.4,1698.6,261.7,1699.5,262z"/>
	<path class="st22" d="M1757.8,279.7c0.5,0,1,0,1.5,0c0.3-0.1,0.6-0.1,0.9-0.1c1.4,0,2.2,0.7,3,1.6c0.2,0.2,0.3,0.4,0.5,0.6
		c0.5,0.6,1.5,0.7,2.1,0.2c0.5-0.9,1.1-1.7,1.8-2.5c0.3-0.4,0.6-0.8,1.1-1.2c0.4-0.3,0.7-0.5,1.1-0.7c0.4-0.2,0.8-0.4,1.2-0.6
		c2.5-1.1,6.4-1,7.5-3.9c-0.1,0-0.1,0-0.1,0.1c-2.1,1.9-6,0.8-8.6,1.5c-1.5,0.4-3,1-4.1,2.1c-0.6,0.6-0.9,1.2-1.3,1.9
		c0,0.1-0.1,0.1-0.1,0.2c-1.7-1.4-3.7-2-6.2-1.3c-1.6,0.5-3.2,0.9-4.9,0.9c-1.2,0-2.5-0.3-3.7,0.2c0,0,0,0-0.1,0
		C1752,280.4,1755,279.9,1757.8,279.7z"/>
	<path class="st22" d="M1666.6,283.3c0.5,0.1,1,0.3,1.4,0.4c0.3,0,0.6,0.1,0.9,0.2c1.3,0.4,1.9,1.3,2.4,2.4c0.1,0.2,0.2,0.4,0.3,0.7
		c0.3,0.7,1.2,1.1,2,0.9c0.8-0.7,1.6-1.3,2.4-1.8c0.4-0.3,0.9-0.6,1.4-0.8c0.4-0.1,0.9-0.2,1.3-0.3c0.4-0.1,0.8-0.2,1.3-0.2
		c2.7-0.3,6.4,1,8.3-1.4c0,0-0.1,0-0.1,0c-2.6,1.2-6-1.1-8.7-1.1c-1.5,0-3.1,0.1-4.5,0.8c-0.7,0.4-1.2,0.9-1.8,1.4
		c-0.1,0.1-0.1,0.1-0.2,0.2c-1.3-1.8-2.9-3-5.5-3.1c-1.7-0.1-3.3-0.2-5-0.7c-1.1-0.4-2.3-1-3.6-0.9c0,0-0.1,0-0.1,0
		C1660.8,282.1,1663.8,282.6,1666.6,283.3z"/>
	<path class="st22" d="M1400,547.2c-8.4,2.3-17.4-6.1-25.4-7.6c-4.5-0.8-9.5-1.3-13.9,0.2c-2.3,0.8-4,2-6.1,3.3
		c-0.2,0.1-0.4,0.3-0.6,0.4c-2.9-6.1-7.3-10.5-14.9-12.1c-5-1-9.9-2.1-14.5-4.5c-3.3-1.7-6.5-4.2-10.3-4.4c-0.1,0-0.2,0-0.3,0
		c4.1,7.6,13.2,10.4,21,13.8c1.4,0.6,2.8,1.3,4.2,2.1c0.9,0.2,1.8,0.5,2.7,0.9c3.8,1.7,5,4.9,6,8.5c0.2,0.7,0.5,1.4,0.6,2.2
		c0.7,2.2,3.2,4,5.5,3.6c2.6-1.7,5.3-3.2,8.2-4.3c1.4-0.8,2.9-1.5,4.5-1.8c1.4-0.2,2.7-0.3,4-0.2c1.3-0.1,2.6-0.1,4,0
		c8.4,0.5,18.6,6.1,25.7-0.1C1400.3,547.2,1400.1,547.2,1400,547.2z"/>
	<path class="st22" d="M1303.1,487.9c0.5,0,1,0,1.4,0.1c2.1,0.4,3.1,1.8,4.1,3.4c0.2,0.3,0.4,0.7,0.6,1c0.6,1,2.1,1.6,3.2,1.1
		c1.1-1.2,2.2-2.3,3.5-3.2c0.6-0.6,1.2-1.1,2-1.4c0.7-0.3,1.3-0.5,2-0.6c0.6-0.2,1.3-0.4,2-0.5c4.2-0.8,10,0.7,12.7-3.4
		c-0.1,0-0.2,0-0.2,0.1c-3.8,2.2-9.4-0.8-13.5-0.5c-2.4,0.2-4.8,0.6-6.9,1.9c-1,0.7-1.7,1.5-2.6,2.4c-0.1,0.1-0.2,0.2-0.2,0.3
		c-2.2-2.6-5-4.3-8.9-4.1c-2.6,0.1-5.2,0.2-7.8-0.4c-1.8-0.4-3.7-1.2-5.7-0.9c0,0-0.1,0-0.1,0c3,3.2,7.8,3.5,12.2,4.2
		C1301.5,487.6,1302.3,487.7,1303.1,487.9z"/>
	<path class="st22" d="M1153.4,623.1c-2.3-0.5-4.8-0.9-7.1-0.2c-1.2,0.3-2.1,0.9-3.2,1.5c-0.1,0-0.2,0.1-0.3,0.2
		c-1.3-3.2-3.5-5.6-7.3-6.5c-2.5-0.6-5-1.3-7.3-2.7c-1.7-1-3.2-2.3-5.2-2.5c0,0-0.1,0-0.1,0c1.9,4,6.5,5.6,10.4,7.6
		c0.7,0.3,1.4,0.7,2.1,1.2c0.5,0.2,0.9,0.3,1.3,0.5c1.9,1,2.4,2.6,2.8,4.5c0.1,0.4,0.2,0.8,0.2,1.1c0.3,1.1,1.5,2.1,2.7,2
		c1.4-0.8,2.8-1.5,4.3-2c0.7-0.4,1.5-0.7,2.3-0.8c0.7-0.1,1.4-0.1,2.1,0c0.7,0,1.3,0,2,0.1c4.3,0.5,9.3,3.6,13.1,0.6
		c-0.1,0-0.2,0-0.3,0C1161.8,628.6,1157.4,624,1153.4,623.1z"/>
	<path class="st22" d="M1156.6,522.3c-3.7-0.2-7.7,0-11.1,1.7c-1.7,0.9-3,2-4.5,3.2c-0.1,0.1-0.3,0.2-0.4,0.4c-2.9-4.6-7-7.6-13.2-8
		c-4.1-0.3-8.1-0.6-12.1-2c-2.8-1-5.6-2.6-8.7-2.4c-0.1,0-0.1,0-0.2,0c4.1,5.6,11.6,6.9,18.3,8.8c1.2,0.3,2.4,0.7,3.5,1.2
		c0.8,0.1,1.5,0.2,2.2,0.4c3.2,1,4.5,3.4,5.7,6.1c0.3,0.6,0.5,1.1,0.7,1.7c0.8,1.7,3,2.8,4.8,2.3c1.9-1.7,3.9-3.1,6.1-4.3
		c1.1-0.8,2.1-1.5,3.4-1.9c1.1-0.3,2.1-0.5,3.2-0.6c1-0.2,2.1-0.4,3.2-0.5c6.8-0.5,15.5,2.9,20.5-2.9c-0.1,0-0.3,0-0.4,0.1
		C1171.2,528.4,1163.1,522.6,1156.6,522.3z"/>
	<path class="st22" d="M1201.1,553.3c0.4-0.1,0.8-0.1,1.2-0.1c1.7,0.1,2.7,1.1,3.6,2.3c0.2,0.2,0.4,0.5,0.6,0.8
		c0.6,0.7,1.8,1,2.6,0.5c0.8-1.1,1.6-2,2.5-2.9c0.4-0.5,0.9-1,1.4-1.4c0.5-0.3,1-0.5,1.5-0.7c0.5-0.2,1-0.5,1.5-0.6
		c3.3-1.1,8-0.5,9.8-4c-0.1,0-0.1,0-0.2,0.1c-2.8,2.2-7.6,0.4-10.9,1c-1.9,0.4-3.8,1-5.3,2.3c-0.7,0.6-1.2,1.4-1.8,2.2
		c-0.1,0.1-0.1,0.2-0.1,0.3c-2-1.9-4.4-2.9-7.6-2.3c-2.1,0.4-4.1,0.7-6.2,0.5c-1.5-0.1-3.1-0.6-4.6-0.1c0,0-0.1,0-0.1,0.1
		c2.8,2.2,6.6,1.9,10.2,2C1199.8,553.2,1200.5,553.3,1201.1,553.3z"/>
	<path class="st22" d="M1101.3,548.3c-1.9-0.2-3.9-0.2-5.7,0.6c-0.9,0.4-1.6,1-2.4,1.6c-0.1,0.1-0.1,0.1-0.2,0.2
		c-1.4-2.4-3.4-4.1-6.5-4.4c-2.1-0.2-4.1-0.5-6.1-1.3c-1.4-0.6-2.8-1.5-4.4-1.5c0,0-0.1,0-0.1,0c2,3,5.8,3.8,9.1,5
		c0.6,0.2,1.2,0.4,1.8,0.7c0.4,0.1,0.8,0.2,1.1,0.3c1.6,0.6,2.2,1.8,2.8,3.3c0.1,0.3,0.2,0.6,0.3,0.9c0.3,0.9,1.4,1.5,2.4,1.3
		c1-0.8,2.1-1.5,3.2-2c0.6-0.4,1.1-0.7,1.8-0.9c0.6-0.1,1.1-0.2,1.6-0.2c0.5-0.1,1.1-0.1,1.6-0.2c3.5-0.1,7.8,1.9,10.6-0.9
		c-0.1,0-0.1,0-0.2,0C1108.6,551.8,1104.6,548.6,1101.3,548.3z"/>
	<path class="st22" d="M1456.8,388.7c1.1,0.4,2.1,0.8,3.1,1.2c0.7,0.1,1.4,0.3,2,0.5c2.8,1,3.9,3.2,4.8,5.7c0.2,0.5,0.4,1,0.6,1.5
		c0.6,1.5,2.5,2.7,4.1,2.3c1.8-1.4,3.6-2.6,5.6-3.5c1-0.7,2-1.2,3.1-1.5c1-0.2,1.9-0.4,2.9-0.4c0.9-0.2,1.9-0.2,2.9-0.3
		c6-0.1,13.7,3.3,18.4-1.6c-0.1,0-0.2,0-0.4,0c-5.8,2.2-12.8-3.4-18.6-4c-3.3-0.3-6.8-0.4-9.9,1c-1.6,0.7-2.8,1.7-4.1,2.7
		c-0.1,0.1-0.3,0.2-0.4,0.3c-2.4-4.2-5.9-7.1-11.4-7.8c-3.7-0.4-7.2-0.9-10.6-2.4c-2.5-1-4.9-2.6-7.6-2.6c-0.1,0-0.1,0-0.2,0
		C1444.4,385.2,1451,386.7,1456.8,388.7z"/>
	<path class="st22" d="M1514.9,454.3c-1.7,0.2-3.4,0.7-4.8,1.8c-0.7,0.5-1.2,1.2-1.7,1.9c0,0.1-0.1,0.1-0.2,0.2
		c-1.7-1.8-3.8-2.8-6.6-2.4c-1.9,0.3-3.7,0.5-5.6,0.2c-1.4-0.2-2.8-0.7-4.1-0.3c0,0,0,0-0.1,0c2.3,2.1,5.8,2,9,2.3
		c0.6,0,1.1,0.1,1.7,0.2c0.4,0,0.7,0,1,0c1.5,0.1,2.3,1.1,3.1,2.2c0.2,0.2,0.3,0.5,0.5,0.7c0.5,0.7,1.6,1,2.3,0.6
		c0.7-0.9,1.5-1.7,2.3-2.5c0.4-0.4,0.8-0.8,1.3-1.1c0.5-0.2,0.9-0.4,1.4-0.6c0.5-0.2,0.9-0.4,1.4-0.5c3-0.8,7.2-0.1,8.9-3.1
		c0,0-0.1,0-0.2,0.1C1522,455.7,1517.8,453.9,1514.9,454.3z"/>
	<path class="st22" d="M1406.6,450.5c-0.1,0.1-0.1,0.1-0.2,0.2c-1.1-2.2-2.8-3.8-5.6-4.3c-1.9-0.3-3.7-0.7-5.4-1.5
		c-1.2-0.6-2.4-1.4-3.8-1.5c0,0-0.1,0-0.1,0c1.6,2.7,5,3.6,7.9,4.8c0.5,0.2,1.1,0.4,1.6,0.7c0.3,0.1,0.7,0.2,1,0.3
		c1.4,0.6,1.9,1.8,2.3,3c0.1,0.3,0.2,0.5,0.2,0.8c0.3,0.8,1.2,1.4,2.1,1.3c0.9-0.7,1.9-1.2,2.9-1.7c0.5-0.3,1-0.6,1.6-0.7
		c0.5-0.1,1-0.1,1.5-0.1c0.5-0.1,1-0.1,1.5-0.1c3.1,0.1,6.9,2,9.4-0.3c-0.1,0-0.1,0-0.2,0c-3,1-6.5-2-9.4-2.5
		c-1.7-0.3-3.5-0.4-5.1,0.2C1407.9,449.6,1407.3,450.1,1406.6,450.5z"/>
	<path class="st22" d="M1337.7,410.7c0.5,0,1.1,0.1,1.6,0.2c2.4,0.5,3.5,2.2,4.5,4.1c0.2,0.4,0.4,0.8,0.6,1.2
		c0.6,1.2,2.3,1.9,3.5,1.4c1.3-1.3,2.6-2.4,4.1-3.4c0.7-0.6,1.4-1.2,2.3-1.5c0.8-0.3,1.5-0.5,2.2-0.6c0.7-0.2,1.5-0.4,2.2-0.5
		c4.8-0.7,11.3,1.2,14.5-3.2c-0.1,0-0.2,0-0.3,0.1c-4.4,2.4-10.6-1.3-15.3-1.2c-2.7,0.1-5.5,0.4-7.8,1.8c-1.2,0.7-2,1.6-3,2.6
		c-0.1,0.1-0.2,0.2-0.3,0.3c-2.4-3.1-5.4-5.1-9.9-5c-3,0-5.9,0-8.8-0.7c-2.1-0.6-4.2-1.5-6.4-1.2c-0.1,0-0.1,0-0.2,0
		c3.3,3.8,8.7,4.2,13.6,5.2C1336,410.2,1336.9,410.4,1337.7,410.7z"/>
	<path class="st22" d="M1390.1,426.6c0.5,0,0.9,0,1.4,0c0.3-0.1,0.5-0.1,0.8-0.1c1.2,0,2,0.6,2.7,1.4c0.2,0.2,0.3,0.3,0.4,0.5
		c0.5,0.5,1.4,0.6,1.9,0.2c0.5-0.8,1-1.5,1.6-2.2c0.3-0.4,0.6-0.8,0.9-1.1c0.3-0.2,0.7-0.4,1-0.6c0.3-0.2,0.7-0.4,1-0.5
		c2.3-1,5.7-0.9,6.8-3.5c-0.1,0-0.1,0-0.1,0.1c-1.9,1.7-5.4,0.7-7.7,1.4c-1.3,0.4-2.7,0.9-3.6,1.9c-0.5,0.5-0.8,1.1-1.2,1.7
		c0,0.1-0.1,0.1-0.1,0.2c-1.6-1.2-3.3-1.8-5.5-1.2c-1.5,0.4-2.9,0.8-4.4,0.8c-1.1,0-2.3-0.2-3.3,0.2c0,0,0,0-0.1,0
		C1384.8,427.3,1387.6,426.8,1390.1,426.6z"/>
	<path class="st22" d="M1308.1,429.8c0.4,0.1,0.9,0.2,1.3,0.4c0.3,0,0.6,0.1,0.8,0.2c1.2,0.3,1.7,1.2,2.1,2.2
		c0.1,0.2,0.2,0.4,0.3,0.6c0.3,0.6,1.1,1,1.8,0.8c0.7-0.6,1.4-1.2,2.2-1.7c0.4-0.3,0.8-0.6,1.2-0.7c0.4-0.1,0.8-0.2,1.2-0.3
		c0.4-0.1,0.8-0.2,1.2-0.2c2.5-0.2,5.7,0.9,7.5-1.3c0,0-0.1,0-0.1,0c-2.3,1.1-5.4-0.9-7.8-1c-1.4,0-2.8,0.1-4,0.7
		c-0.6,0.3-1.1,0.8-1.6,1.2c-0.1,0.1-0.1,0.1-0.2,0.2c-1.1-1.6-2.6-2.7-4.9-2.8c-1.5-0.1-3-0.1-4.5-0.6c-1-0.3-2.1-0.9-3.2-0.8
		c0,0-0.1,0-0.1,0C1302.9,428.8,1305.6,429.2,1308.1,429.8z"/>
</g>
<path class="st23" d="M1910.9,1368.5c-14,1.6-25,8.9-41.6,8.7c-28-0.4-59.4-1.1-85.6-8.1c-25-6.8-48.8-5.5-75.9-5.5
	c-28.9,0-52.1-9.3-81.6-10.3c-29.3-1-58.6,8.5-86.8,17.1c-31.1,9.5-64.1,8.7-93.2-5.6c-30.2-14.8-62.5-4.3-93.8,0.4
	c-33.2,5-63.2,0.1-95.8-1.7c-20.4-1.1-31.7,5.2-48.7-8.2c-12.3-9.7-15.3-15.2-33-10.3c-15.9,4.4-30.4,13.3-47.2,17.2
	c-24.5,5.7-49.3,6.2-74.3,8.5c-88.9,7.9-178.4,34.2-269,27.1c-24.8-1.9-50-9.3-72.5-19.4c-16.6-7.4-31.4-16.8-50.3-15
	c-18,1.7-35.5,9.2-54.2,3.9c-13.7-3.9-25.2-14.6-37.8-21.4c-26.9-14.4-62.5-19.2-92.4-11.1c-34.5,9.3-61.4,27.6-97.2,20.1
	c-13.8-2.9-31.1-10.4-45.1-9.8c-14.4,0.5-29.3,9.5-43.4,14.6c-50.6,18.3-101.4,32.2-153.9,44.6c-57.6,13.6-118.7,22.3-163.6,62.1
	c-11.2,9.9-32.8,26.4-25.8,44.5c10.4,26.5,80.4,33.1,102.3,35.5c109.9,11.9,220.4,16.7,330.6,23.2c156.2,9.2,312.4-0.7,468.7,2.9
	c112.7,2.5,226.5,12.4,338.8,21.1c78.1,6.1,730.9,11.9,808.8,12l-46.9-233.4C1945.3,1366.4,1918.2,1367.7,1910.9,1368.5z"/>
<path class="st22" d="M1950.6,1421.6c-4.8-3.9-10.9-6.9-18.6-8.7c-47.3-10.8-100,4.4-134.3-48.7c-25.6-9.2-43.7-10.6-71.3-15
	c-0.8-3.6-8.2-5.4-14.5-4.4c-31.2,6.4-49.5,15.5-77.5,26.4c-13.8,5.4-24.5,1.6-38.1,8.7c-8.1,4.3-17.6,16.4-24.4,22.1
	c-34.7,29.1-33.9,9.3-78.1,11.6c-27.5,1.4-51.3,18.8-75,26.3c-30.9,9.8-47.1,6.6-70.4-6.1c-15.9-8.6-42.6-35.4-61.6-35.5
	c-25.5-0.2-46.1,23.1-71.1,23.1c-21.9,0-57.3-11.6-70.1-26.3c-29.6-6.1-37.6-42.2-66.6-53.8c-35.5-14.2-63.6-6.1-96.7-9.3
	c-32.3-3.2-54.2-25-85-30.9c-15.5-3-67.2,12.8-79.1,28.3c-25.3-20.9-92.4,55.4-118.1,75.7c-20.9,16.4-41,43.2-69.4,43.6
	c-32.3,0.5-34.9-27.4-59.4-38c-10.3-4.4-29.4,0-41.1-1.8c-15.5-2.5-14.9-13.8-31.3-13.9c3.4,0-37.6,14-40,14.8
	c-11,3.6-23.5,9.5-35.9,14.6c-28.1,11.7-42,11.1-65.6-2.9c-17-10.1-38.2-36.2-57.8-27.6c-12.1-33.3-54.5-34.2-71.6-64.4
	c-12.8-3.8-19.1-6.1-30.6-12.6c-19.8,5.5-34.8,25.3-50.7,11.5c-5.9,4.2-4.9,5.7-8.5,11.4c-15.3,6.7-15.3,3.4-23.6,19.6
	c-14.8-12.9-32.5-17.8-49.2-6.8c-10.5,19.8-25.8,7.6-36.8,29.6c-17.7-3.3-37.4-11.4-49.8,0.6l-7.8,53.3v395
	c58.5,34.3,142.2,35.7,203,37.3c167.5,4.4,332.5-16,499.8-15.4c351.9,1.2,708.1-77.9,1061.1-41.6c63.2,6.5,126.5,9.5,188.6-3.7
	c11.4-2.4,20.4-4.3,27.2-6.3V1421.6z"/>
<path class="st24" d="M1027,1600.2c-28.4-14.2-58.6-23.3-88.3-35.5c-25.7-10.5-55.2-15.6-79.9-21.8c-13.7-3.5-31,2.1-45-1
	c-20.5-4.6-21.7-22.1-39,3.1c-23.1-17.1-47-20-70.8-37.6c-23.3-17.3-44.7-27.8-67.4-38.5c-32.4-15.3-38.2-33.6-69.1-9.4
	c-24.4,19.1-36.4,51.7-70.8,51.9c-1.6-4.9-5.1-8.8-5.6-13.9c-30.8-17.5-35.7-23.3-70.8-2.8c-18.8,11-15,16.5-38.7,10.8
	c-14.8-3.5-22.6-12-34.4-19.1c-25.1-15.2-50.3-19-72.8-38.9c-14.1-12.5-9.2-18.6-30.2-21.7c-13.7-2-26.3-0.7-39.4-2.5
	c-4.3-25.8-74.6-40.8-96.9-30c-11.4,5.6-9.7,14.2-18.7,20.8c-8,5.9-13.3,4.8-24.3,8.8c-19.3,6.9-33.4,14.2-52.5,14.8
	c-12.1,0.4-31-9.2-43.5-1.8c-7.6,4.5-8.5,18.3-14.3,23.6c-5.4,4.9-17.5,6.8-22.2,10.8c-3.3,2.8-7.1,7-11,11.6l67,456.4
	c6.4-1.3,11.8-2.4,15.1-2.8c50.6-6.8,102-12.6,151.6-24.3c127.2-30,255.3-47.9,382.2-81.3c128.3-33.8,256.4-63.1,381.3-108.4
	c45.9-16.6,90.3-36.4,138.4-45.9c22.5-4.4,46.8-6.2,65.1-20.1C1116.5,1627.9,1050.2,1611.8,1027,1600.2z"/>
<path class="st24" d="M1950.6,1422.8c-13.9-9.4-27.4-10.1-42.1-20c-33.2-22.4-23.6-48.1-71.2-37.3c-10.1-9.1-17.3-12.1-32.1-9.7
	c-8.8,2.6-8.1,11-7.6,16.4c-25.6-0.7-18.9,17-34.5,24c-11.1,5-30.2-2-46.4,8.1c-3.6,26.9-28.2,19.2-43.5,27.2
	c-14.8,7.7-27,27.1-46.2,34.5c-1,31.2-30.5,14.9-48.6,25.3c-8,4.6-13.7,17.8-21.5,21.3c-8.4,3.7-20.5,3-28.2,5.7
	c-34.2,12.1-59.2,49.6-104.8,35.1c-10.2-21-47.3-3-67-10.9c-31.7-12.7-31-24.3-69.6-19.9c-17-13.5-21.9-25.1-43.8-34.2
	c-14.8-6.1-42.2,8.9-55.1-18.4c-25.5-5.6-54.3,11.7-72.7,27.2c-10.4,8.7-11.6,18.1-24.2,26.1c-15.9,10.1-30.5,5.7-39.7,22.6
	c-26.4,1-37.2,29.2-54.9,42.1c-18.5,13.4-38.4,21.3-56.7,36.5c-40.2,33.4-83.3,55-128.8,80.9c-98.1,55.9-186.2,110.5-289.7,148.5
	c248.8,7.4,507,4.3,756.1-10.6c139.3-8.4,282.6-32.8,423.7-18.5c53.2,5.4,106.2,17.9,160,18.4c30.6,0.3,62.1-7,88.9,3.1V1422.8z"/>
<path class="st25" d="M1388.1,1819.3c-26-16.4-77.7-30-86.4-61.9c-20-8.3-42.4-5.3-60.8-17c-19.3-12.2-20-37.5-43.2-38.2
	c0.1-8.5-2.9-35.2-20.9-33c-36.5,1.6-51.1-4.3-80.3-21.4c-26-15.2-51.6-52.7-86.4-45.7c-0.9-2.9,0.7-7.4-0.3-9.6
	c-14.5,8-33.2,3.2-41-5.6c-14.1,3.8-22.6-3-37.4,0.3c-14.5,3.2-20.3,10.8-32,14.4c-17.4,5.4-64.6,21.5-81.3,16.7
	c-42.7-12.2-63.1-82.5-114.1-35.5c-40.9-7.6-86.2,2.3-130.9-10.5c-51.3-11-45.6,37.8-67.4,53.4c-25.6,18.3-35.3,25.1-69.5,35.4
	c-9.3,27.4-69.9,33.9-79.4,3.9c-38.4-13.5-78.9-10.1-115.8-15.4c-2.5,2.3-1.1,5-4.3,7.6c-34.8-31.8-99.3-26.9-118.2-81
	c-14.4,7.9-75.7,21.1-92.1,15.4c-13.3,19.6-47.3,9.9-56.2,41.3c-22.7-1-30.4,16.1-46.3,28.1c-3.5-2.7-8.4-5.6-11.6-8.6
	c-5.7,1.3-13,3-18.9,4.8c-3.5,13.3-8.6,13.7-16.2,21.2v266.8c44.9-3.1,90.6-11.1,131.7-11.1c163.6,0.3,322.1,13.4,485.2-6.8
	c215-26.5,427.8-33.6,644.3-27.9c70,1.8,140.2,6.3,210.6,3.8c40.2-1.4,104.6,2.8,140.5-16.4
	C1459.6,1860.8,1423.1,1841.3,1388.1,1819.3z"/>
<path class="st25" d="M1077.8,1631.9c-4.5-6.9-11.4-8.2-11.9-17.2c-1.2,0-2.8-0.4-4-0.3c-1.6-5.6-2.9-11.9-5.4-17.7
	c-0.5-0.5-1.6-0.1-2.3-0.3c0.1-8.2-11.3-0.6-16.3-1.7c-0.5-7.1-20.5-17.3-24.1-12.8c-4.7-2.8-1.1-6.8-3.6-10
	c-1.9-2.5-7.4-2.8-9.9-5.5c-4.9-5.2-5.1-12.9-15.5-11.7c-0.3,0.7-0.1,1.5-0.3,2.3c-6.6,2.4-10.5,2.1-17.7,2c0.3,6.2,2,8.3-3.6,11.9
	c-1.5,1-5.1-0.6-6.9-0.1c-2.6,0.7-1.2,4-5.1,4.4c-4.9,0.5-7.8-3.7-11.9-3.5c-3.6,0.2-8.3,4-12.1,5.2c-18.5,6-29.5,21.5-51.2,16.4
	c-0.2,0.8-0.1,1.5-0.3,2.4c-13.3-0.8-4.7-17.5-18.6-14.3c-1.4,5-9.2,7.5-12.3,10.8c-4,4.3-4.2,8-10.1,10.4
	c-5.2,2.1-11.8,2.6-17.9,2.6c-6.5,0.1-10-4.2-16.1-3.6c1.8-8.6-7.7-12.8-12.1-19.8c-4-6.3-10.2-12.9-12.2-20.2
	c-2.6-1.5-3.3-4.4-2.6-7.7c-0.8-0.3-1.5,0-2.3-0.3c0.8-4.5-1.1-9.6-5.9-7.7c-2.7-4.3-10.3-2.9-12.4,0.9c-3.2-1.5-5.9-0.7-7.5,2.4
	c-6.1-4.1-11.7-4.1-18.7-5c-6.9-1-8.6-2.4-13.2,4.3c-2.6-0.2-5.6,0.5-8.3,0.3c-1,4.3,1.7,7.2,4.2,10.2c-2.7,3.3-6.4,7.4-10.2,9.4
	c-8.5,4.6-8.4-2.5-14.8-1.8c-5.3,0.6-5.8,8.6-12.8,7.8c-4.2-0.5-8.9-7.3-9.5-11.9c-2.7,1.1-4.3,1.3-5.2,4.9
	c-5.6-0.9-7.3-6.5-11.8-8.5c-2.3-1-5.5,0.7-8.6-0.6c-2.5-1.1-3.6-3.9-5.7-4.7c-8.1-3.3-9,0.5-11.6,6.4c-1.6,3.7,1.4,4.2-2.4,6.7
	c-0.6,0.4-6.7-0.3-8.4-0.2c-2.1-5.3-5.1-4.2-8.9-3.5c-1.6,0.3-3.1,2.3-4.3,2.5c-2.1,0.3-4.2-0.5-6-0.5c-7.7,0.4-20.9-4.6-27,2.9
	c-10.3-6.5-27.7,12.8-20.8,20.7c4.3,4.9,19.8,3.9,25.7,5.1c5.6,1.2,10.1,3.3,15.5,5.3c10.3,3.8,21,2.8,31.3,6
	c21.5,6.6,43.4,12.7,64.4,20.8c11.4,4.4,23.6,6.1,34.5,11.5c9.9,4.9,18.9,11.8,29.7,14.8c5.4,1.5,11.1,1.3,16.4,3.3
	c4.6,1.8,8.1,5.8,12.6,7.6c9.3,3.8,21.3,2.1,31.2,3.3c21.3,2.5,40.8,3.6,62.1,3.7c36.7,0.1,76.3-7.8,112.4,0l112.2-21.4
	C1080.7,1646.6,1082.5,1639,1077.8,1631.9z"/>
<path class="st24" d="M436.1,1649.1c-4.5-6.9-11.4-8.2-11.9-17.2c-1.2,0-2.8-0.4-4-0.3c-1.6-5.6-2.9-11.9-5.4-17.7
	c-0.5-0.5-1.6-0.1-2.3-0.3c0.1-8.2-11.3-0.6-16.3-1.7c-0.5-7.1-20.5-17.3-24.1-12.8c-4.7-2.8-1.1-6.8-3.6-10
	c-1.9-2.5-7.4-2.8-9.9-5.5c-4.9-5.2-5.1-12.9-15.5-11.7c-0.3,0.7-0.1,1.5-0.3,2.3c-6.6,2.4-10.5,2.1-17.7,2c0.3,6.2,2,8.3-3.6,11.9
	c-1.5,1-5.1-0.6-6.9-0.1c-2.6,0.7-1.2,4-5.1,4.4c-4.9,0.5-7.8-3.7-11.9-3.5c-3.6,0.2-8.3,4-12.1,5.2c-18.5,6-29.5,21.5-51.2,16.4
	c-0.2,0.8-0.1,1.5-0.3,2.4c-13.3-0.8-4.7-17.5-18.6-14.3c-1.4,5-9.2,7.5-12.3,10.8c-4,4.3-4.2,8-10.1,10.4
	c-5.2,2.1-11.8,2.6-17.9,2.6c-6.5,0.1-10-4.2-16.1-3.6c1.8-8.6-7.7-12.8-12.1-19.8c-4-6.3-10.2-12.9-12.2-20.2
	c-2.6-1.5-3.3-4.4-2.6-7.7c-0.8-0.3-1.5,0-2.3-0.3c0.8-4.5-1.1-9.6-5.9-7.7c-2.7-4.3-10.3-2.9-12.4,0.9c-3.2-1.5-5.9-0.7-7.5,2.4
	c-6.1-4.1-11.7-4.1-18.7-5c-6.9-1-8.6-2.4-13.2,4.3c-2.6-0.2-5.6,0.5-8.3,0.3c-1,4.3,1.7,7.2,4.2,10.2c-2.7,3.3-6.4,7.4-10.2,9.4
	c-8.5,4.6-8.4-2.5-14.8-1.8c-5.3,0.6-5.8,8.6-12.8,7.8c-4.2-0.5-8.9-7.3-9.5-11.9c-2.7,1.1-4.3,1.3-5.2,4.9
	c-5.6-0.9-7.3-6.5-11.8-8.5c-2.3-1-5.5,0.7-8.6-0.6c-2.5-1.1-3.6-3.9-5.7-4.7c-8.1-3.3-9,0.5-11.6,6.4c-1.6,3.7,1.4,4.2-2.4,6.7
	c-0.6,0.4-6.7-0.3-8.4-0.2c-2.1-5.3-5.1-4.2-8.9-3.5c-1.6,0.3-3.1,2.3-4.3,2.5c-2.1,0.3-4.2-0.5-6-0.5c-7.7,0.4-20.9-4.6-27,2.9
	c-10.3-6.5-27.7,12.8-20.8,20.7c4.3,4.9,19.8,3.9,25.7,5.1c5.6,1.2,10.1,3.3,15.5,5.3c10.3,3.8,21,2.8,31.3,6
	c21.5,6.6,43.4,12.7,64.4,20.8c11.4,4.4,23.6,6.1,34.5,11.5c9.9,4.9,18.9,11.8,29.7,14.8c5.4,1.5,11.1,1.3,16.4,3.3
	c4.6,1.8,8.1,5.8,12.6,7.6c9.3,3.8,21.3,2.1,31.2,3.3c21.3,2.5,40.8,3.6,62.1,3.7c36.7,0.1,76.3-7.8,112.4,0l112.2-21.4
	C438.9,1663.8,440.7,1656.2,436.1,1649.1z"/>
<path class="st26" d="M1950.6,1517.1c-2.9,0.3-5.7,0.8-8.1,2c-0.5-2.8-2.3-4.9-2.3-8.1c-14.8-6.5-33.6-7.3-47.1-15.2
	c-16.6-9.7-19.5-21.2-39.4-22.3c-15.9-0.8-26.8-8.9-43.4-15.9c-18-7.6-21.6-6.1-33.3,10c-4.3,1.3-13-0.3-15.7,0.7
	c-7.6,2.8-7.1,4.6-13.5,9.9c-4.9,4-23.4,14.4-25.7,20.5c-3,8,3.9,9.5,3.2,15.4c-0.6,6-5.5,11.5-7.1,17.1c-3.9,13.6,0.3,23-14.1,32.3
	c-6.4,4.1-23.6,6.5-31.3,8.4c-8.1,2-6.1,2.2-14.8,2.2c-6.1,0-6.9-3.3-16-1.6c-18.4,3.4-14.1,15-29.1,22.6c-7.3,3.7-26,7.7-34.8,6.7
	c-4.4,6.3-26.4,19.1-33.3,23.7c-3.8,2.5-14,8.4-19,10.4c-3.5,1.4-7.7-2.3-12.2-0.6c-4.9,1.8-9.1,7.4-13.9,8.6
	c-23.1,6-64.9-33.9-84.6-10.1c-7.2-6.7-14.7-19.4-26.5-17.1c-12.3,2.4-13.9,24.7-29.2,17.5c-5.5,11.6-26.4,6.7-36.4,13.9
	c-12.2,8.7-22.5,19.5-35.1,28.6c-24.8,18-49.1,35.3-74.6,51.5c-6.1,3.9-14.4,4.9-20.6,8.5c-9.4,5.5-8.8,9-15.5,17.2
	c-9.3,11.4-132.5,79.1-224.3,62.8c-33-5.9-251.4-53.8-345.3-11.5c-4.5,2-119.9,54.8-123.2,58.2c26.1,28.4,530.7,145.2,562.3,143.5
	c44.7-2.4,204.1-117.9,247.9-109.3c29.8,5.9,61.8-29.1,91.7-25.2c46.8,6,93.5,4.9,140.6,4.7c44.3-0.3,88.8,5,132.5,5.2
	c32.2,0.1,51.6-10.8,82.8,2.1c27.4,11.3,48.8,4,78,3c14.1-0.5,83.1-2.1,87.2,12l43.1-9.4V1517.1z"/>
<path class="st26" d="M1494.9,1641.2c0.2-6-16.7-4.2-10.9-10.2c-1.6-2-4.2-2.5-6.4-0.7c1-4.9-3.7-4.1-6.1-7c-2.8-3.4,0-8.9-4.4-10.8
	c-2.3-1-7.7,2.4-9.6,2.5c-0.8,0-2.3-2-3.2-1.8c-0.9,0.2-2,1.7-2.1,1.7c-1.2,0.2-2.5,2.8-3.1,3.4c-1.2-2.2-3.2-3.7-5.7-4.7
	c-0.6-5.6-4.6,0.8-8.9-2c-4.4-2.9-3.6-6.9-9.7-8.3c-1-2.4-1-2.3-3.2-3.9c4.5-7.1-8.2-8.2-7.4-1.9c-6.5-1.3-5.1,2.9-4.9,6.7
	c0.1,1.4,1.2,3.2,1.3,5c0.1,2-2.2,2.9-1.4,5.6c-0.6,0.4-2.3,1.2-2.9,1.3c-4-9.9-12.7-6.3-19.9-3.6c-4.3,1.6-9.3,1.7-12.5,5
	c-4.6,4.7-2.9,6.7-10,6.3c-5-0.3-5.2-0.1-9.8,1.5c-1.9,0.7-4.4,0.8-6.3,1.4c-1.6,0.5-2.4,3.7-6.4,2.4c-3.9-1.3-2.8-6.2-9.1-4.5
	c-3.4,0.9-8.9,5.5-9.7,8.9c-3.1-0.3-3.4,1.6-5.5,2.7c-0.9,0.5-4.7,2.4-5.3,3c-1,1-2,3.7-3.2,5.2c-1.4,1.8-4,2.7-5.3,5.1
	c-3.2-3.5-5.8,0.8-8.9,1.1c-2.5,0.2-6.5-2.1-9.6-2.1c-1.2,0-3.4,0.2-4.5,0.6c-1.2,0.5-3.5,2.5-3.8,2.6c-1.7,0.5-2.5,1.7-5,1.1
	c-2.2-0.5-1.1-3.2-2.6-3.7c-4.7-1.7-14.7-3.6-18.2,0c-4.7,4.8-1.7,14.7-5.5,18.6c1.3,1.7,1.2,3.6-0.2,5.7c-1.2-0.3-3.1,0.5-4.3,0.2
	c-0.2,2.1,0.9,4.5,0.5,6.3c-1,4.7-1.9,2.5-4.5,5.1c-2.8,2.8-2,0.5-2.7,4c-0.5,2.5,0.7,4.9,0.1,7.6c-0.2,0.8-2.4,5.5-2.7,5.8
	c-2.4,2.1-3.9,0.5-6.3,1.9c-3.3,1.9-4.8,7.2-6.5,10.9c-1.4-0.9-3.5-0.9-4.9-1.8c-0.6,0.6-2.2,2.1-2.6,2.6c1.2,7.5-6.7,3.5-9.7,5.7
	c-2.3,1.6-0.5,3.6-1.9,5.1c-1.4,1.6-3.3,2.5-5.2,3.6c-2.3-0.8-4.5-1.3-7-1.6c-1.9,2.9-17.1,25.9-16.2,11.1c-4.5,3.3-10.3-0.2-13,6.7
	c-0.9-0.6-2.8-0.8-3.7-1.9c-1.4,1.3-3.6,1.7-5.2,2.6c-3.8-3.8-8.3-4.9-12.2-4.3c-2.8,0.4-12.2,5.2-5.3,8.3c0,0.7-0.1,1.7,0.2,2.4
	c4.1,0.4,8.1,1.1,6.9,6.4c-5.3,2.6-5.4,6.3-12,6.6c-1.2,3.3-5.4,3.6-6,8.2c-3.6,0.9-9.3-2.4-8.8-6.2c0.5-3.6,8.5-5.8,3-11.1
	c-1.9-1.8-4.3,0.8-5.7,0c-1.5-0.9-2.2-4.9-4.3-5.2c-2.8-0.5-6.4,6.4-5.4,9c-6.1,0.1-10.2,6.4-5.6,10.3c0.6,0.1,1.1,0.1,1.7,0.2
	c0.7,0.8,0.2,0.7,1.3,1.3c-0.3,2.6,0.6,5.4,2,7.5c-0.6,0.3-1.7,0.2-2.4,0.2c-0.1,0.6,0.2,1.8-0.2,2.4c-1.5-0.1-2.3,0.7-3.6,0.9
	c0.3,7-11.1,0.9-9.2,9.4c-4.2,0.8-8.5,0.6-13.3,0.9c-0.6,4.7-5.5,3-8.5,1.7c-5.9-2.6-2.9-4.6-7,0.1c-3.6,4.1-3.6,4.7-8.5,6.5
	c-3,1.1-6.2-1.1-6.4,4.4c-4.6-2.2-6.6,0.1-10.7,2.2c-3.9,2-8.1,2.3-12.2,3.9c-8.8,3.4-17,10.8-25,15.9c9.2,3.5,24.3-4.4,33.3-7
	c12.9-3.8,23.4-3.1,36.5-3.2c10.9-0.1,21.3-2,32.1-3.2c11.4-1.2,24.5-3.4,33.9-9.8c10.6-7.3,23.4-11.3,34.9-17.7
	c10.6-5.9,14.6-19,26.3-22.6c9.7-3,17.6-7.2,26.9-12c16-8.3,33.2-13.3,49.6-20.6c11.3-5,22.8-7.4,33.7-13.6
	c10.3-5.9,20.6-8.9,31.6-13c21.2-7.9,42.7-16.3,65.4-18c17.7-1.3,36.5-4.3,54.1-3.7c9.5,0.3,21,2.7,30.3-0.1
	c6.7-2,12.7-7.8,18.5-11.4c3.7-2.3,10.3-4,10.9-9.1l1.9-21.2C1507,1639.5,1501,1643.8,1494.9,1641.2z"/>
<path class="st27" d="M856.1,1847.8c-3.7-1.1-4-3.8-8.4-1.3c-1.5-0.5-2.6,1.2-4.7,0.7c-0.7-0.2-1.1-1.1-1.9-1.3
	c-1-0.3-2.2,0.1-3.2,0c-1.1-0.1-4.3-0.2-5.1-1.4c-1.3-2.1,2-1.9,2.1-3.7c-0.7,0-1.3-0.5-2.1-0.4c-0.4-1.3-0.4-1.2-1.6-1.6
	c-0.8-1.2-0.5-2.5-0.1-3.8c-2.3,0.9-2.5-1.1-4.4-1.6c-0.5,0.5-1.5,1.5-2.4,1.6c-2.6,0.1-0.6-1.2-2.5-2c-2.9-1.3-3.7,2.9-6.4,1.1
	c0.2,3.3-0.4,2.9-2.9,3.8c-1.1,0.4-1.2,1.4-2.9,1c-2.2-0.5-0.6-0.6-1.7-1.9c-1.4-1.8-8.5-6.8-3.9-8.7c-0.6-2-2.9-2-4.4-2.5
	c2.5-4.8-6.8-2.1-8-2.9c-1.8-1.3-0.4-3.1-3-3.8c-1.9-0.5-4,1.1-5.8,1.6c-1.3,0.3-4.1,1.5-5.5,1.3c-2.2-0.4-2.8-2.3-3.9-3.5
	c-2.5-2.6-3.2-6.9-7.3-7.4c0,0.2-0.1,0.4-0.1,0.5c-1.9,0.3-3.4,2-5,2.7c-2.5,1.2-2.7,0.8-5.5,0.6c-1.4,2-3.8,1.6-5.4,1.2
	c-1-0.2-6.2-2.6-5,1c-2.8,0.3-4.7,3.3-8.2,2.5c-1.5-0.4-1.4-2.6-3.2-0.9c-0.5,0.5-0.3,3-0.9,3.9c-2.1,3.2-3.7,2.1-6.3,1
	c-1.5-0.6-1.8-1.9-3.8-1.1c-1.4,0.6-1.6,2.2-2.3,3.5c-0.3,0.1-0.6,0-0.9,0.1c-0.2,1.2-0.5,1.9-0.4,2.8c-2.1,1.4-3.4,0.4-5.7,0.3
	c0.1-0.4-0.2-1.1-0.1-1.5c-2.6-0.5-2.7-5.4-5.1-4.2c-0.8-1-2-1.3-3.1-0.7c-1.3-2.5-3.3-1.3-5.2-2.2c-1.8-0.8-1.8-3.4-3.9-1.3
	c-0.4,0.4-1.3,4.4-1.3,4.8c-0.1,2.3,1.7,2.6,1.7,4.8c0.6-0.4,1.6-0.3,2.1-0.6c-0.7,3.3,2.8,3.4-0.3,5.8c-0.6,0.5-1.7-0.6-2.6,0.6
	c-0.7,0.9,0.4,2.5-0.6,3.6c-1.1,1.1-2.3-0.9-3.2,1.3c-0.6,1.3,1,2.2,0.3,3.5c-0.7,1.3-1.8,0.9-2.9,1.6c-1.6,1-1.5,1.4-2.8,2.6
	c-0.6,0.6-2.5,1.5-2.8,1.8c-0.9,1.2-0.3,2.5-0.9,3.6c-0.6,1.1-2.2,1.5-2.8,2.6c-0.6,1.1-0.3,2.5-0.9,3.6c-2.3,4.6-9.2,6.1-10.3,12.4
	c-0.7,3.8,3.1,6.1,6.4,7.1c2.7,0.8,5.8,0.5,8.6,0.9c4.3,0.8,8.2,1.8,12.6,1.4c10.6-0.9,21.2-3,31.8-4.1c7.3-0.8,14.7-0.5,22-1.4
	c4.4-0.5,9.2-1.1,13.6-0.6c9,1.1,18.5,1.3,27.7,0.6c10.5-0.9,21.7,0.4,32-1.3c7.1-1.2,14.2-1.3,20.2-5.1c3.3-2,5.8-2.2,9.3-3
	c0.3-0.1,1-0.4,1.4-0.6l10.6-16.4C862.4,1847.9,858.7,1848.6,856.1,1847.8z"/>
<path class="st27" d="M1935.6,1662c-21.5-6.4-48.8,14.5-67.2,4.4c-9,8.9-17.7,3.5-25.3-3.9c-1.2-4.3-3.8-9.3-5.3-11.7
	c0.5-0.8,0.4-1.7,0.7-2.4c-3.9,1.5-3.4-1-5-2.6c-1.2-1.3-3.3-2.5-4.8-3.7c-1.3,0.7-2.7,0.9-4.1,0.6c-0.1-0.4,0-0.8-0.1-1.1
	c-2-1.1-5.2-0.1-7.2-0.5c-2.7-0.5-4.7-1.2-7.6-1.4c-1.3-2.5-5.5-0.2-7.8,0.1c-3.3,0.4-6-0.6-9-0.9c-1.8-0.1-2.7,1-4.3,0.9
	c-1.1-0.1-3.3-1.4-3.8-1.3c-3.2,0.3-5.3,3.3-8.9,3c0.1-1.6-0.4-3-1.4-3.8c-1.3,1.5-3.1,2-3.9,0.1c-1.4,0.2-2.5-0.4-3.7-0.6
	c0-0.9-0.1-2.3,0-3.3c0.3-0.4,0.6-0.5,0.8-0.9c-2-1.5-4.1-0.6-4.8-3.8c-1.7-0.4-3.2,0.3-4.2,1.7c-3.4-3-2.3,3.3-5.5,2.9
	c-0.1-1.6-0.7-1.4-1.3-2.5c-0.3,0.4-0.6,0.8-0.9,1.2c-3.5-0.7-4.2,3.5-4.1,6c4.8-0.8,3.8,3.6,5,6.9c-2.7-0.5-4.1,1.4-3,3.9
	c-5.1-0.5-2.5,2-5,4c-2.5,2-4.3-1.5-6.5,1.2c0.6,0.7,0.9,2.2,1.6,2.9c-1.2-0.2-2.2,0.5-3.3,0.6c0.1,0.6-0.2,1.4-0.1,2
	c-0.8-0.2-2,0.3-2.9,0.1c1,5.3-6.2,2.5-7.9,5.4c-0.2-0.1-1-0.4-1.2-0.3c-0.8,4.9-7.2,1.2-6.5,5.5c-0.3,0.1-0.9-0.1-1.2,0.1
	c-0.3,1.6-1.5,5.2-2.7,6.4c-1.6,1.4-5,0.4-4.3,4.2c-1,1-1.9,2-2.9,3.2c-0.6,0.7-1.8,0.5-2.3,1.1c-0.7,0.9,0,2.2-0.8,3
	c-2.4,2.3-6.1,0.9-7.6,4.6c0.2,0,0.5,0.1,0.7,0.1c0,2.6-1.8,2.6-3.8,2.9c-1.1,0.2-1.3-1.6-2.1-1.3c-0.5,0.2-1.4,1.3-1.3,1.3
	c0.8-0.2-1.7,2.1-1.7,2.1c0.5-0.3-2.8,0.2-2.5,0.2c-1.9-0.1-3.1,0.8-4.1-1.7c-2,1.7-4,0.2-3.8-2.2c-1.6,1-3.9,0.7-5.9,1.2
	c-0.8-1.3-0.7-0.8-1.7-1.7c0.1-1-0.5-1.6-0.6-2.5c-1,0.7-2.2,0.4-3.3,0.7c1-2.6-0.9-3.4-1.8-5.4c-3.6-0.1-4.1,1.2-6.4-2.2
	c-1.9,0.7-2.6,2.3-2.6,4.3c-1.5,0.2-2.6,0.2-3.8-0.8c-1.6,1.2-9.2,3.7-3,6c-1.6,0.5-3.5,1.2-3.3,3.4c1.2,0.9,0.7,1,1.1,2.5
	c-3.1-1.7-2.4,0.4-4.3,1.2c-1.1,0.5-4.6,0.7-5,0.9c-3.4,1.9,0,2.4-1.3,4.3c-1.2,1.9-3.2,0.9-4.8,2.1c0.5,1.3,1,2.3,2.1,3.1
	c0,0.5-0.1,1.5,0,2c-2,1.8-1.7,3-5,4c3.8,4.3-9.2,2.7-8.6,8.5c0.4-1,2-1.2,3.3,0c-0.3,1.3-0.7,2.6-1.1,3.7c0,0,0.8-1.1,0.9-1.2
	c1.1-0.1,2.4,0.2,3.3,0.9c0,1.4-1,2.5-2.4,3c0,1.2-0.9,2.1-1.9,2.9c-7.3,4.5-9.8,9-17.1,23.4c-2.5,4.9-5.1,9.3-7.7,13.3
	c-1.3,1-2.6,2.3-3.7,2.7c-1.6,0.7-2.8,0.7-4.3,1.7c-1.4,0.9-1.7,2.9-3.9,3.8c-0.9-0.9-2-1.2-3.6-0.5c-0.5-5.4-3.7-3.7-6.7-2.5
	c0.9-5.4-9,2.7-6.6-6.3c-2.2-0.2-2.4-2.3-2.1-4.3c-2.3-0.2-7.4,3.4-6.4-1.7c-3.6-1-4.4,1.9-6.4,3.3c-1.8,1.4-0.5,1.7-3.3,1.2
	c-1.6-0.3-1.1-1.9-3.1-1.8c-0.5-0.2-1.1-0.9-1.7-1.2c-0.3,0.2-0.5,0.7-0.7,0.8c-1.4-1.2-2.3-2.3-2.3-4.1c-0.4-0.2-0.8,0.1-1.2-0.1
	c-1-1-0.2-1.1-1.8-1c-0.5-0.3-1.5-1.2-2-1.6c1.4-0.4,2.4-1.5,3.3-2.5c-4.8-2.9,3.3-3.6-0.9-6c-2.6-1.4-6.1-0.4-9.3-2.2
	c-0.3-2.8-3.2-1.7-5.2-2.9c-1.7,2.3-5.3,3.7-7.7,4.7c-1.5,0.6-2.5-1.1-4,0.7c-0.9,1-0.6,3.3-0.4,4.4c-1.5,1.3-3.3,1.3-4.7,2.6
	c0.4,0.2,0.9,0.7,1.7,0.9c-0.5,2.5,4,6.5,0.1,7.3c-0.4,0.8-0.5,1.6-0.4,2.4c3.6-0.7,1.6,1.9,3.2,2.8c1.3,0.7,4.4,0.5,6.1,0.8
	c-0.1,0.6,0.1,1.3,0.1,1.9c0.7-3.4,3.2-2.3,4.3-0.7c0.6,0.9-0.6,2.4-0.4,3.3c0.1,0.2,2.8,2.1,3,2.2c-0.6,0.7-1.3,1.8-1.8,2.5
	c-1.9-1.2-3.9-0.9-3,1.7c-1.6-1-4.6-3.2-4.7,0.4c-1.8,0.2-2.9-1-3-2.9c-4.1-0.8-2,3.7-1.3,5.4c-1.8,0-3.4,0.6-3.4,2.6
	c-1.8,0.2-2.8,1.8-4.2,2.6c-0.4,0.2-3.7-2.1-3,2.1c-4.1,0.8-4.4-2.5-7.1-2.4c-1.5,2.7-3.6,0.3-3.1-2.1c-1.2-0.3-1.5-1-2.9-1
	c0-0.7-0.1-1.3,0-2c0.4-0.1,0.8,0.1,1.2-0.1c0-0.3-0.1-1.3,0-1.6c-1.1-0.4-1.1-1-2-1.4c2.7-5.7-7,0.1-9-0.3c0.2,1.9-0.6,3.5-2.6,3.4
	c-0.1,0.9-0.8,1.5-1,2.4c-0.9,0.1-3.4-0.4-4.2,0.1c-1.2,0.7-0.8,2.3-1.6,2.7c-0.8,0.4-3.5,0.3-3.6,0.3c-1.1,0.8-1.4,2-2.2,2.6
	c-1.4,1.2,0.4,1.4-2.1,2.2c-1.5,0.4-2.5-0.7-3.9-0.9c-1.5-0.3-1,1.2-3.4-0.1c-0.6-0.3-1.1-2.6-2.6-3.3c-0.5,0.3-1.7,0.5-2.1,0.8
	c0.2-0.3,0.5-1.2,0.9-1.7c-1.3-0.6-2.7-1.8-3-3.3c1.2-0.6,1.3-1.4,2.4-2.2c-1.8-0.4-2.3-1.4-1.6-3c-1-0.6-2.7-1.1-3.7-1.2
	c-0.1,0.2-0.1,0.5-0.2,0.7c-0.6,0-2.2-0.3-2.9-0.4c-0.3-1.9-1.6-2.6-3.4-2c-0.6,2.2-3.9,4.9-5.7,6.3c0.5,0.2,0.8,0.7,1.7,0.9
	c-1.4,1.2-2.2,3-3.4,4.3c-0.6,0.7-0.7,1.8-1.3,2.5c0-0.1-2.2,0.9-2.6,1.3c1.3,1.1,1.6,2.6,0.8,3.8c-3-0.4-4.2,3.2-5.9,4.7
	c-0.7,0.6-1.9,1.3-3,2c-25.8-3-53.3-1.7-70.2,21.1c-32.4-10.4-48.2,10.4-57,38.5c-27.6,1.4-48.8,9.9-72.5,10.7
	c-13.8,0.4-19.9-1.7-31.8,1.9c-9.2,2.8-17.5,13.5-24.9,18.7c-4.3,0.1-11.4,4.3-10.6-3.5c-5.1-1.1-4.5-5.1-11.4-3.4
	c-0.7-4-7-4.6-7.9-10.8c1.9-1,2.5-2.7,3.2-4.5c-4.1-1.5-5-4.5-8.2-7.1c1.2-2.1,1.7-5.1,0-6.9c0.7-0.6,1.3-1.4,1.9-1.9
	c-2.1-2.4-6.2-1.7-7.6,1.2c-2.6-4.2-1.3-8.5-6.6-10.9c-2.5-1.1-4.4,1-6.5-1.2c-1-1-0.1-5.1-1.4-6.8c-2.2-0.1-5-0.6-7.5-0.3
	c-0.5-2.9-2.8-3.2-5.2-1.8c-0.4-0.6-1-1.1-1.4-1.9c-3.4-0.4-6.8,4.1-6.4,6.8c-4.1,4.2,1.1,6.6-0.7,11c-1.4-0.3-3.5,0.5-4.9,0.2
	c0.2,1-0.4,2.6-0.2,3.7c-1.9-0.2-3.9,0.9-5.5,0.9c-2.9,0-2.8-0.9-5.1-1.5c-3.3-1-6.3-2.3-8.6-5.1c2.2-2.2,1.9-4.3-1.1-5.3
	c-0.9-1.3-0.1-1-1.3-2c1-0.9,1.2-2.3,1.8-3.1c-3.8-0.4-2.8-4.5-5.7-6.4c-1.3-0.9-3,1.6-4.5,0.7c-1.4-0.9-1.5-3.6-2-3.9
	c-4.4-2.3-10.7,1-17.1,1.4c-0.1,0.4-0.1,0.7-0.2,1.1c-2.5-1.1-5.4-1.2-6.4,1.3c-3.8-0.7-10.8,4-10.9,7.7c-4.5,0.8-9.4,3.2-13.6,3.8
	c-4.2,0.6-9.6-3.5-8.3,4.5c-4.8,2.1-8-0.5-12.1-2.5c-4.3-2.1-7.3-2-12.8-2.5c-1.9-0.2-4.1-0.7-6.3-1.2c-7.2-3.2-14.5-5.8-23.3-6.3
	c-9.3-0.5-19.8,9.2-26.6,9.9c-10.8,1.1-17.5-4.1-28.2-4.6c-19.5-0.8-28.9,4.4-51.9,2.5c-26.1-2.2-35.4-4.4-57.4-18
	c-19.8-12.2-22.3-17.2-43.5,0.6c-28.2,23.8-56,51.4-83.9,76.3c-35.3,31.5-72.1,75.1-85.6,120.9c28.5,26.1,80.4,35.5,116.8,45.6
	c50.7,14.2,100.5,39,148.4,59.9c49.2,21.4,100.7,48.2,153.7,59c6.5,1.3,13.1,2.7,19.7,4h952.7v-525.3
	C1944.2,1670.8,1938.7,1668.1,1935.6,1662z"/>
<path class="st28" d="M1313.1,2194.5c-31.7-31.3-46-53.4-89.7-71.2c-71.3-28.9-118-60.8-173.8-108c-36.6-31-104.1-49.2-126.7-90.9
	c-41.2,8-69.8-55.6-101.7,6.5c-15.2-10.5-31.5-23.4-46.7-33.6c-2.7,1.6-11.3,8-14.9,7.6c-19.5-2.2-37.3-7.7-54.1-14.7
	c-3.1-2.6-6.3-5.2-9.8-7.7c-17.9-12.4-35.1-27.6-53.7-39.5c-7.7-4.9-16.9-8.2-23.1-14.7c-7.2-7.5-13.8-20.5-24.5-23.1
	c-0.5-7-9.1-15.1-16.9-15.4c0.9-5.4-2.3-6.3-4.1-9.7c-0.5-1-4.1-6.9-4.2-7c-3.5-5.8,1.3-13.8-11.3-11.5c3.9-9.8-0.4-16.5-0.5-25.2
	c0-1.1,3.1-9.2,3-9.3c-1.6-4.4-5.1-4.8-6.6-7.7c-4.7-9-8.4-42.9-21.9-40c0-1.5-0.3-3.2-0.4-4.8c-2.3-0.6-6.5-0.7-8.7,0
	c-0.5,1.1,0,2.3-0.4,3.4c-5.6,5.7-10.8,5.6-17,9.1c-6.1,3.5-9.3,11.3-17.7,8.8c-3.5-6.2-14-4.1-19.8-11.7
	c-6.8-8.9-5.5-13.2-20.6-12.7c-1.4-6.4-7.2-9-13-6.4c-0.9-11.3-17.8-6.5-24.8-12.6c-6.6-5.8-8.3-20.4-22.1-14.4
	c-0.6-5.7-6.3-6.4-11.7-5.2c-0.3-1.2-0.1-2.3-0.4-3.5c-13.3,1-13.5-5.6-21.9-11.8c-1-0.7-7.1-0.9-9.4-2.4c-2.1-1.4-1.8-6.6-3.9-7.8
	c-2.7-1.6-4.7,1.1-6.2,0.4c-1-0.5-5.6,1.4-7.5,0.7c-1.6-0.5-2.6-6-3.8-6.3c-6.4-1.5-7.1,2.7-13.4,2.6c-8.7-0.1-14.9-10.6-23.7,1.1
	c-3.5-4.2-9.4-6.1-15.1-5.2c0.4-9.2-8.8-16.7-16.8-10.2c-3.2-11.1-10.5-2.8-17.2-2.4c-4.2,0.3-7.2-3.2-11.8-2.6
	c-3.6,0.4-3.1,4.6-5.4,4.9c-12.9,1.9-31.8-11.7-38.8,4.1c-8.6-7.2-15.6,4.5-17.2,12.5c-6.7-5.2-11.7,1.7-11.6,9.2
	c-6.3-0.8-10.1,2.8-14.1,6.6c-6.1,5.9-2.6,8.3-5.1,14.1c-3.6,8.3-2.8,4.1-9.2,10c-4.2,3.9-10,1.2-8,10.4c-5.6,0.3-10.1,3.8-12.8,8.7
	c-4.1-1.3-5.1,0.7-9,0.7c-1.2,12.7-10,9.4-17,9.1c-2.6-0.1-10.7-0.6-13.1,0.6c-6.8,3.4-2.9,4.8-6.5,9.3c-5.2,6.6-10.7,13.8-13,21.8
	c-1.9,6.6-1.8,13.7-6.5,20.6c-8.9,12.9-21.7,23.9-34.8,35c-3.1,2.6-13.3,12.1-18,20.6c-4.4,2.8-8.9,5.6-13.3,8.4v405.1h1345.4
	C1315.2,2196.5,1314.1,2195.5,1313.1,2194.5z"/>
<g>
	<path class="st28" d="M536,1741.3c0.4,0,0.7,0,1.1,0.1C536.8,1741.3,536.4,1741.3,536,1741.3z"/>
	<path class="st28" d="M542.3,1725.6c-0.3-0.1-0.6-0.2-0.8-0.3C541.8,1725.4,542.1,1725.5,542.3,1725.6z"/>
	<path class="st28" d="M601.3,1765.6c1,0.7,2.1,1.3,3.4,1.6C603.6,1766.8,602.4,1766.2,601.3,1765.6z"/>
	<path class="st28" d="M602.9,1784.7c3.7,0.1,8.7,0.6,11.6,3c-0.7-2.9-6.8-4-9.4-4.6c-3-0.8-7.2,0.1-9.9-1.1
		c3.4,0,10.9-1.6,13.4-3.9c-6-1.2-13.3,3.4-17.6-2.6c2.5,1.2,6.6,0.5,8.6-1.2c-3.1,0.1-5.6-1.6-7.9-3.3c5.5-0.4,10.6,2.7,15.7,3.9
		c-3.6-2.1-6.7-4-10.8-5.2c-3.5-1-7.4-1.5-10.7-2.6c4.2-0.4,7.5-0.3,11.4,1.4c-1.9-2.2-6-4.8-8.8-5.5c2.5-0.8,7,0.7,9.4,1.3
		c1.2,0.3,2.3,0.8,3.5,1.4c-2.2-1.5-4-3.2-7.2-3.4c2.5-3.5,10-4.9,14.1-5.2c-5.2-1.6-12,2.3-16.9,3.6c1.8-1.9,6.4-5.1,8-8
		c1.1,0.3,2.1,0.6,3.2,0.9c-0.7-0.9-1.6-1.8-2.7-2.5c0,0,0,0,0-0.1c0,0,0,0,0,0.1c-2.6-1.7-5.9-2.7-8.6-3c5.3-2.5,11.9-3.3,16.5-6.8
		c-5.3,1-11.2,3.9-16.6,4.2c2-4,9.6-7.6,13.2-8.7c-3.9,0-7.2,1.9-10.9,2.5c2.8-3.4,7.8-4,10.8-6.9c-3.4-0.5-6.3,2.9-9.6,3.2
		c2.8-3,5.3-6.4,8.7-8.9c2.5-1.9,5.6-2.9,8.1-4.7c-6.5-0.7-11.2,7.1-16.1,9.9c-0.2-2.3,0.1-4.6-0.1-6.9c-1.7,1.9-3.5,6.1-4.6,8.4
		c-0.1-1.7,0.7-4.2,0-5.7c-1.9,1.6-3.6,6.6-5,9c-1.3,2.1-3.1,4.5-5.1,5.9c3.5-3,3.9-11.3,3.6-15.7c-2.6,5.7-5.5,13.9-10.6,18.1
		c0.8-3.3,1.8-7,2.7-10.3c-1.2,2-2.6,4.2-4,6.1c-0.1-2.1,0.8-4.1,0.8-6.3c-0.3,2.3-2.5,5.2-4.2,6.6c-0.3-2.8,2.5-5.6,2.7-8.6
		c0.1-2.2-0.3-4.1-0.9-6c-0.5,6.9-2.5,14-8,18.6c0.6-5.5,2.6-11.2,3.4-16.6c-2.9,2.8-2.7,6.8-4.4,9.9c-0.2-4-1.8-9.3-4.5-12.2
		c-0.1,3.7,2.2,7.1,1.9,11.1c-2.4-3-5.6-4.6-8.7-6.9c-2.4-1.8-5-3.7-7.8-4.7c4.3,1.7,12.6,9.3,11.8,13.7c-4.1-1.6-7.7-4.4-11.6-6.2
		c1,2.5,3,6.1,4.8,8.2c1.9,2.2,4.9,2.6,6.8,4.5c-6.2,0.1-10.7-4-16.9-4.4c2.4,0.5,5,3.1,6.8,4.4c1.4,1.1,2.6,1.9,4.2,2.4
		c1.2,0.4,3,0.4,4,1c-0.8-0.1-1.5,0.3-2.2,0.3c0.3,0.4,0.7,1.2,1.2,1.7c-0.6-0.1-1.3,0-1.9-0.2c0.1,0.4,0,0.8,0.2,1.2
		c-0.6-0.3-1.3-0.4-1.9-0.7c1.9,2.6,3.6,5.4,5.4,8.1c-1.8-1.8-3.4-3.8-5.5-5.3c-1.8-1.3-3.8-1.7-5.6-2.6c2.8,1.1,4.4,5.2,6.1,7.5
		c1.5,2,2.8,4.2,4.5,5.9c-3.5,0-5.5-3.7-9-3.4c2.4,1.4,5.7,3.9,7.7,6.4c-2.7,0.4-6.1-0.9-8.8-1.3c-3-0.4-6.3-1.3-8.8-3
		c4.5,3.4,8.7,5.5,13.8,7.3c-3,1.1-6.3,0.3-9.4,2.2c-3.4,2.1-4.9,5.2-7.4,8c3.4-0.4,10-7.8,13.9-5.7c-3.8,1.9-6.1,4.9-9,7.7
		c3.2-0.9,6-4.8,9.4-5.4c-3.8,6-11.4,9.6-17.8,12.2c3.6,0.3,9.1-2.2,12.4-3.6c2.9-1.2,4.7-3.1,7.4-4.4c-1.4,4-6.7,6.4-9.2,9.9
		c-2.7,3.8-4.3,8.3-5.7,12.7c4-4.8,7.6-10,12.9-13.4c-3.3,2.5-5.1,7.1-4.9,11.2c1.2-2.1,4.1-6.5,6.4-7.6c-1.5,2.9-1.8,6.7-3.7,9.8
		c-2.4,4-5.9,7-9,10.2c3.2-0.7,6-3.8,8.5-5.8c2-1.6,4.2-3.6,5.4-5.8c-1.6,4-4.2,7.2-4.8,11.6c2.1-2.8,4.3-5.7,6.5-8.3
		c-0.7,3.2-1.2,6.1-1,9.6c1.1-0.5,2-3.5,2.7-4.7c1.3-2.1,2.9-4.1,4.4-5.9c-0.6,3,0.7,5.8,1.6,8.7c1,3,1.8,6.6,3.4,9.2
		c0.5-6-0.9-11.8-1-17.6c0.9,3,2,5.1,4.2,7.4c0.9-2.6-0.4-5-0.2-7.6c-0.2,1.9,1.1,5.1,2.7,5.9c0.1-2.3,0.1-4.6,0-6.9
		c2.3,7.3,9,15.5,16.7,17.4c-1.1-2.7-2.7-5.3-4-8c-0.6-1.2-1-2.5-1.4-3.9c0.7,1.3,1.6,2.4,2.7,2.9c1.1-1.9,0.1-4.8,0.3-6.9
		c2.4,3.1,2.4,8.5,4.4,11.9c0.1-0.5-0.1-0.9-0.2-1.4l1.5-14c2.7,4.9,6.2,10.7,6.8,16.7c1.2-3.7-0.2-11.1-2.5-14.2
		c3.3,4.8,7.3,9,9.3,14.6c0.8-4.5-3.6-9.7-5.4-13.6c-1.8-3.9-3.9-7-6.2-10.5c2.3,1.7,4.9,3,7.2,4.7c1.7,1.3,4.6,3.6,6.9,3.2
		c-4.7-3.9-9.2-8.6-13.8-12.9c1,0.5,2.4,0.8,3.3,1.4c1.3,0.9,2.2,2.5,3.3,3.7c-0.5-3.7-4-6.5-6.2-9.2c4.8,0,9.1,6.4,10.8,10.2
		c0.1-3.7-2.8-7.4-3.8-10.9c3.2,2.9,8.1,6.2,9.3,10.9c0.3-3.9-3.5-6.6-4.2-10.1c5.5,3.3,8.6,8.1,11.6,13.6
		C614,1793.9,607.5,1788,602.9,1784.7z M584.4,1757.5c0.2-1.1,1.1-2,1.9-2.9c-1.2,0.2-2.3,1.2-3.6,1.2c-0.1-1.7,1.7-2.5,1.1-4.4
		c5.3-1.8,10.1-0.3,14.9,1.1c-2.7,2.7-7.2,5.3-10.7,6.3c1.1-2,2.6-3.8,3.7-5.9C589.5,1754.4,587,1757.1,584.4,1757.5z"/>
</g>
<g>
	<g>
		<path class="st28" d="M475.5,1695.7c0,0-16.7-26.3-13.3-53.3C470.9,1657.2,473.5,1686.5,475.5,1695.7z"/>
		<path class="st28" d="M475.5,1695.7c0,0-16.7-26.3-13.3-53.3C467.8,1670.4,473.5,1686.5,475.5,1695.7z"/>
	</g>
	<g>
		<path class="st28" d="M474.8,1704.7c0,0-9.5-29.7,0.7-54.9C480.1,1666.3,475.2,1695.3,474.8,1704.7z"/>
		<path class="st28" d="M474.8,1704.7c0,0-9.5-29.7,0.7-54.9C473.7,1678.4,475.2,1695.3,474.8,1704.7z"/>
	</g>
	<g>
		<path class="st28" d="M470.4,1705.1c0,0-14.5-24.9-19.1-50.2C469.7,1668.8,468.5,1695.8,470.4,1705.1z"/>
		<path class="st28" d="M470.4,1705.1c0,0-14.5-24.9-19.1-50.2C464.2,1676,468.5,1695.8,470.4,1705.1z"/>
	</g>
	<g>
		<g>
			<path class="st28" d="M468.4,1703.3c0,0-11.5-26.5-35-32.8C463.2,1664.9,463.6,1695.2,468.4,1703.3z"/>
		</g>
		<g>
			<path class="st28" d="M468.4,1703.3c0,0-11.5-26.5-35-32.8C458.9,1671.4,463.6,1695.2,468.4,1703.3z"/>
		</g>
	</g>
</g>
<g>
	<path class="st28" d="M448,1646.3c0.2,0-1.2,0.6-1.1,0.5c-0.6,0.3-1.4-0.3-1.1,0.8c-1-0.3-2.6-0.2-3.1-1.2c1.9,0,4.6,0.4,4.2-1.9
		c-1-0.1-1.8,0.5-2.8,0.2c0-0.5-0.1-0.9-0.3-1.3c0.3,0.2,0.9,0.2,1.2,0.3c0.6-0.5,1.8-0.4,1.6-1.5c0.4,0.1,0.9-0.1,1.2,0
		c0.1-1.5,0.1-3.7-2.5-3.5c0,0.4-0.1,0.9,0,1.3c-0.3,0-0.6,0.1-0.9,0c0.2,0.7-0.5,1.8-1.1,0.8c-0.4-0.6,1-1.8-0.8-1.5
		c-0.1,0.2-0.3,0.4-0.3,0.5c-0.3-1.4-2.1-0.3-2.8-0.3c-0.3,0-1.1-0.2-1.6-0.3c-0.7,0-1.5,0.3-2.2,0.1c-0.9-0.3-0.5-0.8-1-1
		c-0.4-0.2-1.2-0.1-1.6-0.4c-0.6-0.6,0.3-2.3-1.7-1.9c0.2,0.8-1.4,1.8-1.8,2.6c-0.1,0.2-0.3,1.4-0.5,1.6c-0.7,0.8-1,0.2-2,0.3
		c0,0.2,0,0.3,0,0.5c-1.3,0.2-2.9-1.1-3.3,0.5c-1.4-0.5-1.7-2.1-3.4-2.1c-1.4,0-2.8,1.5-3.7-0.1c-1.6,0.6,0.5,3.8-2.7,3.6
		c-0.4-1.4,1.1-2.7,0.9-4.1c-1.2-0.4-1.1,0.7-1.9,1c-0.7,0.3-1.6-0.7-1.8,0.4c-1.8,0.3-2-0.7-1.4-1.5c0.2-0.3,2.2-1.6,0.1-1.4
		c0.2-0.8-0.7-1.7-1.8-1.4c-0.9,0.3-0.4,1.6-1.9,1.1c-0.5-0.2,0-0.9-0.5-1.1c-0.4-0.2-1,0.1-1.5,0.1c-1,0-2.8-0.5-2.8,0.6l0.3,1.8
		c0.1,1.8-1.3-0.3-1.5-1c-1-0.3-6.2,1-6.2-0.7c1.8-0.3,0-0.9-1-0.7c0.3-1.2-2.5-1.4-1.4,0c-0.7,0.1-1.6,0-2.3,0.1
		c-0.4,1.2,1.4,1.4,1.7,2.3c0,0.1-0.2,1.8-0.2,1.9c-0.3,0.5-0.6,0.9-1.5,1c-0.2,0.7,1.4,2.7-0.6,2.2c0.1-0.9-0.4-1.7-1.6-1.4
		c0.1,0.5-0.2,1.1-0.2,1.5c0.1,0.5,0.7,1,0.4,1.8c-0.3,0.7-0.9,0.7-0.9,1.7c0,0.7,0.4,1.7,1.3,0.8c1.5-0.1,3.6,0.2,4.9-0.2
		c0.6-0.2,1.3-0.4,1.4-1c0.2-0.7-0.6-0.8-0.4-1.6c1.5-0.4,1.4,0.7,1.5,1.6c0.1,0.5,0.1,0.9,0.2,1.4c0.2,1.3-0.1,1-0.6,2
		c-0.4-0.1-0.9,0-1.2-0.2c0,0.3-0.2,0.6-0.2,0.8c-0.5-0.6-1.5-0.6-1.8,0.2c-0.8-0.1-2.9,0-3-0.9c-0.3,0.3-0.6,0.1-0.6,0.8
		c-0.2-0.3-0.7-0.7-0.9-0.9c-0.6,0.5-1.5,0.2-2.3,0.2c0.5,0.7,1.2,1.3,0.4,2.2c0.4,0.4,1,0.9,1.6,1.2c-0.2,0.1-0.4,0.5-0.6,0.6
		c0.4,0.1,0.8,0.4,1.2,0.4c0.4,1.1-1.2,0.7-1.2,1.5c0,0.5,1.1,0.9,1.1,1.8c-0.8,0.1-1.5,0.1-1.7-0.5c-0.5-0.1-1.1-0.1-1.5,0
		c-0.1,0.1,0.1,0.2,0.1,0.2c-1.2-0.1-1.1,0.8-0.8,1.4c0-0.1,0.9,0.3,1.1,0.4c0.1,0.1,0,0.9,0,1c0.7-0.1,1.5,0,1.6,0.6
		c1,0.1,0.6,1.3,0.5,1.9c0.4-0.1,0.9,0.1,1.2,0c0,0.6,0,1.3,0,1.9c1.3,0.2,2-0.1,2-1.1c0.4,0.6,0.7,1.3,0.7,2.1c0.2,0,0.4,0,0.6,0
		c0-0.2,0.1-0.5,0.1-0.8c0.7,0.4,0.5,1.6,1.6,1.6c0.5-1.5,2.3-3.4,3.5-1.2c0-0.1,0.1-0.3,0.2-0.5c0.3-0.1,0.6,0,0.9,0
		c0.2,0.8-0.1,1.4,0.8,1.7c0.7,0.3,1.7,0,1.6-0.6c1.1,0.2,1.5-0.4,1.4-1.3c1.1-0.1,2.1-0.3,3.2-0.3c0.1-0.8-2-1.6-2.9-2
		c0,0,0-0.3,0-0.3c0.9,0,2-0.3,2.8,0c0-0.2,0.1-0.5,0-0.7c0.7,0.2,1.6,0.5,2.5,0.4c1-2.7-4.8-0.2-4.2-2.1c0.9,0,2,0,1.9-0.9
		c0.3,0.1,0.8,0,1,0.1c0.1-0.5,0-1.2-0.1-1.7c0.9,0.3,0.3,1.2,0.9,1.8c0.7,0.7,2.2,0.4,3.3,0.4c-0.3,1,0.9,1.7,1.3,0.6
		c0.4,0.9,0.4,1.9,2.2,1.6c0.1-0.4,0.6-0.6,0.8-0.9c0.4,1.9,0.9,1,2.7,1.2c-0.2,1.5,2.7,1.4,4.1,1.5c0.9-1.1,6.9,1.2,6.4-1.5
		c-0.1-0.5-1.2-1.1-1.6-1.7c-0.5-0.7-0.8-1.8-0.6-2.7c0.7,0,1.5,0,2.2-0.1c-0.9-0.3-2.1-0.6-2.3-1.5c0.6-0.2,0.7-0.4,0.8-0.9
		c0.6,0.2,0.9,0.9,1.6,1.2c0.8,0.3,1.6,0.2,2.4,0.2c-1.8-0.5-2.7-1.1-1.9-2.7c0.7,0.4,1.6,0.2,2.2,0.8c0.3-0.5,0.3-1-0.3-1.3
		c0-0.5,0.1-1.1,0.2-1.6c0.7-0.2,1.2,0.4,1.7,0.3c0.8-0.1,0.7-0.8,1.7-0.6c-0.2,2.1,2,0.5,2.9,0.1c0.1,0.4,0.4,0.8,0.8,1.1
		c1.1-0.4,1.2-1.5,2.5-1.2c0.7,0.2,0.5,0.8,0.8,0.9c0.7,0.1,0.8-0.4,1.4-0.5c1.4-0.2,2.5-0.2,3.3,0.8c0.5,0.6,0.8,2.1,2,0.9
		c0.5-0.5,0-1.8,0.7-2.5c0.4-0.3,1-0.3,1.4-0.7c0.4-0.5,0.2-1,0.3-1.5C449,1647.5,449.8,1646.4,448,1646.3z"/>
	<path class="st28" d="M400.1,1631.5c-0.2,0,1.2-0.5,1.1-0.5c0.6-0.3,1.3,0.4,1.2-0.8c0.9,0.3,2.6,0.3,3,1.4
		c-1.9-0.1-4.6-0.6-4.3,1.8c1,0.2,1.8-0.4,2.8-0.1c0,0.5,0.1,0.9,0.2,1.3c-0.3-0.2-0.9-0.3-1.2-0.4c-0.6,0.5-1.9,0.3-1.7,1.4
		c-0.4-0.1-0.9,0.1-1.2,0c-0.2,1.5-0.2,3.7,2.3,3.5c0-0.4,0.1-0.8,0.1-1.2c0.3,0.1,0.6-0.1,0.9,0c-0.1-0.8,0.5-1.8,1.2-0.7
		c0.4,0.6-1.1,1.7,0.7,1.6c0.1-0.2,0.3-0.4,0.4-0.5c0.2,1.4,2,0.4,2.8,0.4c0.3,0,1.1,0.3,1.6,0.3c0.7,0.1,1.5-0.3,2.2,0
		c0.9,0.3,0.5,0.8,0.9,1.1c0.4,0.2,1.2,0.2,1.6,0.5c0.6,0.6-0.4,2.3,1.7,2c-0.1-0.8,1.5-1.8,1.9-2.6c0.1-0.2,0.4-1.4,0.5-1.6
		c0.7-0.7,1-0.2,2-0.2c0-0.2,0.1-0.3,0.1-0.5c1.3-0.2,2.9,1.2,3.3-0.3c1.4,0.5,1.6,2.1,3.3,2.2c1.4,0.1,2.9-1.4,3.7,0.3
		c1.6-0.5-0.3-3.8,2.8-3.4c0.4,1.5-1.2,2.7-1.1,4c1.2,0.4,1.1-0.6,1.9-0.9c0.7-0.2,1.5,0.8,1.8-0.3c1.8-0.2,1.9,0.8,1.4,1.6
		c-0.2,0.3-2.3,1.5-0.1,1.4c-0.3,0.8,0.6,1.8,1.7,1.5c0.9-0.2,0.5-1.6,1.9-1.1c0.5,0.2-0.1,0.9,0.4,1.1c0.4,0.2,1-0.1,1.5-0.1
		c1,0.1,2.8,0.6,2.9-0.5l-0.2-1.8c-0.1-1.8,1.3,0.4,1.4,1.1c1,0.3,6.2-0.8,6.2,0.9c-1.8,0.3-0.1,0.9,1,0.8c-0.4,1.2,2.4,1.5,1.4,0.1
		c0.7-0.1,1.6,0,2.3,0c0.5-1.2-1.4-1.5-1.6-2.4c0-0.1,0.3-1.8,0.3-1.8c0.3-0.5,0.6-0.9,1.6-1c0.3-0.7-1.3-2.7,0.7-2.1
		c-0.2,0.9,0.3,1.7,1.5,1.4c0-0.5,0.3-1.1,0.2-1.5c0-0.5-0.7-1.1-0.4-1.8c0.3-0.7,1-0.7,1-1.6c0-0.7-0.3-1.7-1.3-0.9
		c-1.5,0-3.6-0.4-4.9,0c-0.6,0.1-1.3,0.3-1.5,0.9c-0.2,0.6,0.6,0.9,0.4,1.6c-1.5,0.3-1.4-0.8-1.5-1.6c0-0.5-0.1-1-0.1-1.4
		c-0.2-1.3,0.1-1,0.7-2c0.4,0.1,0.8,0.1,1.2,0.3c0-0.3,0.2-0.6,0.2-0.8c0.5,0.7,1.5,0.6,1.8-0.2c0.8,0.1,2.9,0.2,3,1
		c0.3-0.2,0.6-0.1,0.7-0.7c0.2,0.3,0.6,0.7,0.9,1c0.6-0.5,1.5-0.1,2.4-0.1c-0.5-0.8-1.1-1.4-0.3-2.2c-0.4-0.4-0.9-1-1.5-1.3
		c0.2-0.1,0.5-0.5,0.6-0.6c-0.4-0.1-0.7-0.4-1.2-0.4c-0.3-1.1,1.2-0.7,1.3-1.5c0.1-0.5-1.1-1-1-1.8c0.8-0.1,1.5-0.1,1.7,0.5
		c0.4,0.1,1.1,0.1,1.5,0.1c0.1-0.1-0.1-0.2-0.1-0.3c1.2,0.1,1.1-0.7,0.9-1.4c0,0.1-0.9-0.3-1-0.4c-0.1-0.1,0-0.9,0-1
		c-0.7,0.1-1.5-0.1-1.5-0.7c-1-0.1-0.5-1.4-0.4-2c-0.4,0.1-0.9-0.1-1.2-0.1c0-0.6,0-1.3,0-1.9c-1.3-0.2-2,0-2.1,1.1
		c-0.4-0.6-0.7-1.3-0.6-2.1c-0.2,0-0.4,0-0.6,0c0,0.2-0.1,0.5-0.1,0.8c-0.7-0.4-0.5-1.6-1.5-1.6c-0.6,1.5-2.4,3.3-3.5,1.1
		c0,0.1-0.1,0.3-0.2,0.5c-0.3,0.1-0.6,0-0.9,0c-0.2-0.8,0.2-1.4-0.7-1.7c-0.7-0.3-1.7-0.1-1.7,0.6c-1.1-0.3-1.5,0.4-1.5,1.2
		c-1.1,0-2.1,0.2-3.2,0.2c-0.2,0.8,1.9,1.7,2.8,2.1c0,0,0,0.3,0,0.3c-0.9-0.1-2,0.2-2.8-0.1c0,0.2-0.1,0.5-0.1,0.7
		c-0.7-0.3-1.6-0.6-2.5-0.5c-1.1,2.6,4.8,0.4,4.1,2.3c-0.9,0-2-0.1-2,0.9c-0.3-0.1-0.8,0-1-0.1c-0.1,0.5,0,1.2,0,1.7
		c-0.9-0.4-0.2-1.2-0.8-1.8c-0.7-0.7-2.2-0.4-3.3-0.5c0.3-1-0.9-1.7-1.3-0.7c-0.4-0.9-0.3-1.9-2.1-1.6c-0.2,0.3-0.6,0.6-0.9,0.8
		c-0.3-1.9-0.8-1-2.6-1.3c0.2-1.5-2.7-1.6-4-1.7c-0.9,1.1-6.8-1.5-6.4,1.3c0.1,0.6,1.2,1.1,1.5,1.7c0.4,0.8,0.7,1.8,0.5,2.7
		c-0.7,0-1.5-0.1-2.2,0c0.9,0.3,2.1,0.7,2.3,1.6c-0.6,0.2-0.8,0.4-0.8,0.9c-0.6-0.2-0.9-0.9-1.6-1.2c-0.7-0.4-1.6-0.3-2.4-0.3
		c1.7,0.6,2.6,1.2,1.8,2.7c-0.7-0.4-1.6-0.3-2.2-0.9c-0.3,0.5-0.3,1,0.2,1.3c0,0.5-0.2,1.1-0.2,1.6c-0.8,0.1-1.2-0.4-1.7-0.4
		c-0.8,0-0.7,0.8-1.7,0.5c0.3-2.1-2-0.6-2.9-0.2c-0.1-0.4-0.4-0.8-0.7-1.1c-1.1,0.3-1.2,1.5-2.6,1.1c-0.7-0.2-0.4-0.9-0.8-0.9
		c-0.7-0.2-0.8,0.3-1.4,0.4c-1.4,0.2-2.5,0.1-3.3-0.9c-0.5-0.7-0.7-2.1-2-1c-0.5,0.5-0.1,1.8-0.8,2.4c-0.4,0.3-1,0.2-1.4,0.6
		c-0.4,0.4-0.2,1-0.4,1.5C399.2,1630.2,398.3,1631.3,400.1,1631.5z"/>
	<path class="st28" d="M471.8,1665.2c-0.6,0.1-1.5-0.2-2-0.1c-0.1-0.8,0.5-1.2,1.6-1.1c-2.3-0.4-4.7,0-7-0.3
		c1.7-1.4,6.9-2.1,6.1-4.7c-1.1,0.2-2.4,0.4-3.5,0.5c0-0.3-0.1-0.6-0.1-0.9c-1.5-0.3-2.1,0.9-3.3,1.3c0.2-0.4,0-0.7,0.1-1.1
		c-1.3-0.3-2.9,0.5-4-0.3c0.8-0.8,2.2-1,2.9-1.9c-0.9-0.1-1.7,0-2.6,0.1c1.6-0.4,1.7-1.9,1.8-3.4c-1.5,0.8-2.4,1.7-4.6,1.6
		c0.4-0.4,0.5-1,0.8-1.4c-1,0.4-1.9,1.3-3.3,1.1c0.2-1.1-1-1.4-2.1-1.1c-1,2.1-5.1,0.9-4.6-1.2c-2.1,0.1-2.7-0.1-2.9-1.7
		c-0.8,0.2-2,0.3-3,0.2c-0.9-0.1-1.6-0.9-2.4-0.9c-1.7-0.2-2.5,1.2-4.3,0.9l-3.1,2.7c-1.3,0.7-2.6,1.6-2.4,3.1c0.3,2,2.6,1.8,2.2,4
		c1,0.1,1.4,0.5,1.1,1.3c-1.4,0.1-1.5,1.2-1.4,2.1c-1.3-0.2-2.4,0.6-2.6,1.6c-1-0.6-2.4,0.1-3.7-0.3c-1.2-0.4-0.5-1.7-2.6-0.8
		c-0.1-1.5-0.6-4.8-3.1-2.6c0.3-2.8-0.8-1.9-3.1-1.8c0.1,0.3-0.1,0.8,0,1.2c-2.8,0.2-3.8,1-2.2,3c-1.1,0.2-2.2,0-3.2,0.3
		c0,0.3-0.1,0.6-0.1,0.9c-2.4,0.5-1-1.3-2.1-1.5c-1.8-0.5-2.4,1.3-1.2,2.1c-1.8,0.1-0.9,5.1,0,6c-0.3-0.1-1-0.2-1.4-0.3
		c-0.4,1.1-1.6,1.1-1.9,2.3c0,0.2,0.5,1.4,0.4,1.9c-1.4,0.1-3.2,0.9-1.9,2.2c-2.3-0.2-3.2,0.4-3,2.3c-1.4-0.2-1.8,1-1.9,1.9
		c-0.7,0-1.5,0.1-2.1-0.1c0.1,5.1-6.3-3.1-8.1-0.6c-0.6-0.1-1.5-7.2-4-3.5c-0.6-0.7-0.6-2.2-2-2.1c0.1,0.4-0.2,0.9-0.1,1.4
		c-1.2,0.3-2.5,0.2-3.8,0.2c0.2,0.4,0.1,1.1,0.4,1.5c-1,0.1-2,0-3,0.1c0.1,0.4-0.2,1-0.1,1.3c-4,0.1-1.3,0.9-2.8,2.6
		c-1.2,1.4-3.8-0.1-2.8,2.6c-1.1,0-2.2,0-3.2,0.1c-1,1.2,0,2,0,3.2c2.5,0.7,4.9,0.1,5.1,2.9c-2,0.1-1.6,1.9-1.2,2.9
		c-1.7,0.1-2.6,0.4-3.8,0.8c-0.8,0.2-2.6,0.6-3.5,1c0.4,1,1.3,1.7-0.2,2.4c0.7,0.4,1.4,1,1.1,1.9c-0.8,0.3-0.9,0.7-0.6,1.5
		c0.7,0.1,1.6,0.1,2.4-0.1c0.3,1.8,2.8,0.5,4,0.7c1.9,0.4,1.5,2.7,3.5,1.8c0.4,2.2-1.7,2.5-1.6,4.4c0,2,0.8,1.1,2.1,2
		c0.7,0.5,0.9,1.4,1.9,1.9c0.2-0.6,0.7-1.3,1.6-1.1c0.6,0.2,0,1.2,0.4,1.5c1.2,1.3,2.2,1.2,4.1,1.1c0.2-0.6,0.5-1,0.5-1.7
		c0.6,0.2,1.2-0.1,1.8,0.2c0.4-0.9,0.7-6.6,2.7-3.7c0.3-0.8,0-1.7,0-2.5c3,0.1,5.6-0.3,8.2-1c-1.5-1.8,4.6-3.1,0.4-4.4
		c-1.3-0.4-2.1,0.5-3-0.6c-0.8-1.1,0.8-2.1-0.9-2.8c0.6-0.1,1.6-0.2,2.3-0.1c-0.2,1.1,0.8,1.4,1.9,1c0.1,0.2,0.1,0.5,0.1,0.7
		c2.4,0.2-0.4,2.6,3.2,1.4c1.1-0.4,1.9-1.3,3.2-1.6c1-0.2,1.8,0,3-0.2c0-0.5,0.3-0.7,0.2-1.2c1.8-1.4,6.4,1.4,6.3-1.2
		c0.7,0.2,1.1,0.5,1.4,1.1c1.1-0.3,2.3-1.3,3.3,0c1-2.2,2.2-1.4,4.1-0.6c1.8,0.8,3.2,0.7,4.2,2.2c0.9,1.3,0.3,2.4,2.4,2.1
		c1-0.1,1.4-0.9,2.4-1c0.8,0,2.4,0.8,3.5,0.8c1.1,0,1.8-0.1,2.9-0.6c-0.1,0.5,0.2,1.2,0.1,1.7c1,0.2,2.1,0.4,3.1,0.6
		c-0.5,2.2,2.2,3,4.5,2.8c-0.3,0.5-0.2,1.2-0.3,1.7c0.4-0.2,0.5-0.3,0.9-0.5c-0.8,0.6-1.6,1.3-1.4,2.2c2,0.3,5.5-0.7,6.4-1.9
		c0.4-0.5,0.5-1.8,1.2-2.1c1.1-0.5,2.6,0.6,3.7,0.3c1.2-0.3,0.6-1.3,2.4-1.5c1.5-0.2,2,0,3,0.8c0.7,0.5-0.6,1.5,1.2,1.4
		c1.2-0.1,1.4-1.1,0.7-1.6c0.5-0.5,1.8-1.6,1.1-2.4c-0.5-0.6-1.4,0-1.9-0.4c-0.6-0.5-0.6-0.8-1.1-1.4c-0.6-0.7-1.1-1.3-1.8-1.7
		c-0.3-0.2-1.1,0.2-1.5,0c-0.4-0.2-0.5-0.9-0.7-1c-0.3-0.1-1.9-0.2-2.1-0.4c-1-0.6-0.3-1.5-1.4-2c-1.1-0.5-4.6-0.2-5.8-0.2
		c0-0.5-0.1-1.2,0.1-1.7c-0.3,0-0.7-0.3-1.1-0.3c0.6-2.7-2.9-0.5-3.9-1.1c-1-0.6-0.3-3.9-3-1.9c-1.1-0.7-2.4-1-3.8-0.8
		c0.1,0.4-0.2,0.9-0.1,1.3c-1.3,0.2-4.9-0.9-5-1.9c-1.5,0.4-1.5,0.2-2.6-0.2c-0.3-0.1-0.3-0.9-0.6-1c-0.5-0.3-1.2,0.1-1.7-0.1
		c-0.3-0.1-0.7-0.8-0.8-0.8c-0.6-0.2-1.6,0-2-0.2c-1.2-0.4-2.5-0.9-2.1-2.1c1.1-0.3,0.1-0.9,0.7-1.4c0.4-0.4,1-0.3,1.4-0.6
		c1.3-0.9,2.4,0,1.1-2.4c1.2-0.4,1.9,0.5,2.8,0.4c1.3-0.2,1.3-1.1,2.4-1.5c0.1,1.7-0.4,3.1,2.1,3.3c0.8,0.1,1.9-0.6,1.9-0.6
		c1.8,0.1,0.9,0.5,2.2,1.1c0.6,0.3,0,0.6,0.9,0.8c0.5,0.1,0.6-0.7,0.8-0.7c0.6,0,1.5,0.1,2.1,0c2.5-0.6,2-0.7,2.2-3.1
		c1.4,0.5,3.5,0.9,3.1-1.2c1.5,0.2,4.6-2.1,5-0.1c1-0.2,1.7,0,1.9,0.8c0.4-0.3,0.5,0.1,0.9-0.5c0.6,1.5,1.9,0.4,2.4,0.5
		c1,0.1,1.6,0.6,2.7,0.5c0.4-1.1,1.3-0.9,1.8,0c0.9,0.1,1.2-0.2,1.6-0.7c-1.2-0.9-2.6-0.8-3.1-2.1c-0.2-0.6,0.7-1.5,0.5-2.3
		c1.6-0.1,3-0.3,3.9,1c-0.1-1.7,1.4-1.1,2.3-0.6c0.8,0.5-0.5,1.1,1.4,1.5c1.9,0.5,4.3-0.1,3.8-2c-0.9,0-2-0.2-2.8-0.6
		c0.8-1.1,1.7-0.3,2.9-0.8c1-0.4,2.1-1.5,2.5-2.2c0.3-0.5-0.1-1.2,0.2-1.7c0.2-0.4,1.4-0.4,1.7-1
		C473.6,1666.8,471.8,1666.5,471.8,1665.2z"/>
	<path class="st28" d="M427,1653.9c0.8-1.7,2.4-2.7,1-4.2c-1.2,0.9-2,3.1-2.7,4.4c-0.7,1.3-1.3,2.8-1.7,4.1c-1.5-1.3-2.3-3.5-3.7-5
		c-1.4-1.5-3.8-3.3-4.7-5c-2,0.4,0.1,2,0.8,2.7c1,1,1.9,1.8,2.7,2.8c1.7,2.2,3.5,4,4.1,6.6c0.7,2.6,0.6,5.2,0.3,7.8
		c-0.2,1.2-0.1,2.2-0.4,3.4c-0.5,1.7-0.9,3.1-0.7,4.8c0.2,2.1,0.5,4.3,0,6.4c-0.5,2-0.3,4.2-0.9,6.2c1.2,0,2.3,0.7,3.4,0.9
		c0.1-3.1-0.1-6.2,0-9.2c0.1-1.6,0.5-3.1,0.5-4.8c0-1.3-0.1-2.6,0.2-3.9l-0.5-3.9c0.8-0.9,0.7-3.6,0.6-4.8c-0.1-1.3-0.2-2.6-0.2-4
		C425.3,1657.3,426.2,1655.6,427,1653.9z"/>
</g>
<path class="st27" d="M1104.2,2055.7c-2.5-5.4-1.2-18.8-10.2-14.9c-1.5-6.8-6.6-13-6-21c0.3-4.8,0.8-14.8-5-18.8
	c-7-4.7-5.7,2.3-9.2,5.7c-2.9,2.8-2.5-0.4-4.9,0.8c-2.4,1.1-2.2,2.1-4.5,3.7c-11.5,8-7.2-3.5-15.3-7.1c1.4-6.2-6.9-7.3-9.8-11.4
	c-2.2-3.2-7.6-14.2-10.4-4c-3.6-2.4-8.6,0.1-12.2-2.9c-3.8-3.2-2.1-7.7-3.1-12.4c-0.8-3.7-2.9-6.1-3.9-9.6c-1.3-4.7,1.5-6.6-5.7-7.2
	c0.9-5.2-4.2-7-8.3-7.1c-0.2-1.1-0.8-1.8-0.9-3c-2.4-0.8-5.3-2-8.2-1.3c1.4,1.8,0.7,3,1.1,4.9c-4.6,0.8-6.2-2.9-10.7-1.7
	c-0.4,8.3-5.5,11.1-13.5,8.1c-0.4-2.3-0.8-4-1.5-6.2c-0.6-0.1-1.2,0-1.8-0.2c0.8-1.8,1.2-4,1.1-6.2c-4.4,0.5-5.1-3.9-9.4-3.4
	c0-2.3-0.1-3.7,1.8-5.2c-4.8-3.3-0.1-9.9-6.2-13.4c0-3.3-0.1-7.3,3.2-8.9c-2.1-3.2-1.9-9.2-4.1-11.4c-1.3-1.4-4.1,0.9-5.7-0.3
	c-1.2-0.8-2.2-4.2-2.7-5.6c-1,0.5-3.3,0.5-4.3,1.1c0-6.7-5.1-4.6-7.7-1.7c-2.8,3.2-2.9,6.5-8.3,7.1c-2.2,0.2-3.7-0.7-4.8-0.8
	c-0.6-0.1-1.1-1.9-2.4-2c-1.2-0.1-1.6,1.3-2.6,1.3c-1.2,0-3.4,1.6-5.8,1.5c-2.1-0.1-2.5-2.8-5.7-2c1.7,2.2,0.6,2.7,0.5,4.9
	c-0.8,0.1-1.6,0.2-2.4,0.2c0.3,1.3,0.1,7.1-2,7.6c-3.9,0.9-3.4-7-7.2-2.7c-1.9-1.1-3.6-0.9-5.6-1.1c-1.8,7.9-11.5,0.5-16.2,0.5
	l0.6,38.5c3.1-0.9,12.8,10.8,15.9,13.5c7.6,6.4,13.3,13.6,21.8,19.2c24.2,16,49.3,31.6,76.5,42.4c13.3,5.3,25.6,12.3,38.7,18
	c13.7,5.9,27.7,9.3,41.8,14.1c11.8,4,23.9,9.2,35.3,14.2c6,2.6,12.5,8.2,19.2,5.7C1112.8,2069.2,1106.9,2061.6,1104.2,2055.7z"/>
<path class="st27" d="M842.9,1913.1c-5.6-1.8-3.5-7-10.1-4.7c-0.7,0.2-0.8,2.1-2.2,2.1c-1.2,0-0.5-2.4-1.6-2.3
	c-2.4,0.2-1.9,2.4-4.3,2.6c0-0.8-0.5-1.4-0.6-2c-4.5,2.6-6.6-2.5-2.1-1.8c0.6-3,3-6.9,0.8-9.7c-1-0.2-1.4-0.2-2.5-0.5
	c-2.3,3.4-4.6,3.1-9,1.5c-0.7,0.6-1.4,0.7-2.1,1c0.2-0.5,0.1-1.3,0.3-2c-1,2.2-3.3,2.2-2.7-0.5c-0.4,0-1.1,0.1-1.5-0.1
	c0.1-1.2,0.4-3.1,1.3-4.1c0.9-1.1,4.3-1.7,4.5-2.2c0.7-1.5-1.3-2.5-1.6-3.9c-0.4-1.6-0.2-3.2-0.1-5.1c-0.3-0.2-0.8,0-1.2-0.1
	c0.1-0.7-0.2-1.7-0.1-2.4c-1.8-0.5-2.9,0.3-4.2,1.6c0.4,1.5-0.1,1.1-0.5,2.2c-0.4-0.5-1-0.8-1.4-1.3c-1.9,1-1.4,2.4-2.9,3.3
	c0-0.6-0.1-1.4-0.1-2c-1.5,0.5-2.9,0.7-4.6,0.5c0.6,1.9-0.2,6-2.1,6.7c0.1-0.7-0.2-1.7-0.1-2.4c-1.7,0.7-3.5,1.3-3.9-0.9
	c-0.2-0.1-0.5-0.1-0.7-0.1c-0.4-1.5-0.3-1.4-1.7-1.6c-1,2.8-3.7,0.8-6,1.6c-0.1-0.7-0.8-1.5-0.9-2.1c-0.4,0.5-1.7,0.9-2.1,1.2
	c0.2-2.7-1.4-4.5-0.9-6.4c-0.4-0.7-1-1.3-1.7-1.7c-0.5,0.9-0.9,0.7-1.3,1.2c-0.1-0.5-0.1-1.1-0.1-1.6c-2.2,0.9-8.9-8.3-8.4-1.4
	c0.4,0.1,0.8,0,1.2,0.1c0.3,1.6-0.3,3-1.6,4.1c-0.1-0.5-0.1-1-0.2-1.5c-0.5,0-1.5,0.1-2,0c-0.2,0.8-0.8,1.2-0.9,1.7
	c-0.8-1.5-2.2-2.1-3.8-1.3c-0.1,0.5-0.5,1.5-0.5,1.7c0-0.3-0.5-1.9-0.5-2.6c-1.2,0.2-2.2-0.6-3.3-0.6c0.2-1.1-0.3-2.6-0.1-3.7
	c-0.4,0.1-1.1,0.2-1.6,0.3c-0.4-1-1-1.1-1-2.4c-0.2,0.1-1-0.3-1.1-0.5c0,0.5-0.1,1.1-0.2,1.6c-0.8-0.4-2,0-2.9-0.3
	c-0.1,0.5-0.1,1.1-0.1,1.6c-2.4-1.7-3.3-0.1-5.9-1.2c0.2-0.3,0.6-0.8,0.7-1.2c-0.8-0.1-2.4-0.9-3.3-0.9c0-1.7,1.1-2.9,1.2-4.3
	c0,0-1.5-2.3-1.6-2.9c2.3,0.5,4.2-0.6,5.1-2.5c2.4,1.7,2.5-1.8,2.9-3.5c-0.1-0.1-0.7-0.4-0.8-0.5c5.2-2.4-0.2-4.1,0.4-7.7
	c-1.2-0.2-2.1-0.9-3.3-1c0.1-0.9-0.3-2.1-0.1-2.9c-0.7,0.7-1.7,0.9-2.4,1.9c-0.5-0.1-0.8-0.3-1.3-0.3c0.2-1.1-0.3-2.6-0.1-3.7
	c-1,0.5-2.2,0.7-3.2,1.7c0.2-0.1,0.2-0.2,0.2-0.4c-1.3-1.1-0.4-3.2,1.3-4c1.4-4.8-5.3-6.7-4.7-11c-3-0.7-3.9,2.1-3.9,4.6
	c-0.5-0.1-1-0.2-1.6-0.4c0.1-3.8-4.2-2.6-4,0.9c-0.3,0.3-0.8,0-1.2,0.1c-0.8,1.6-0.7,1.6-2.6,2.1c-0.3,0.3,0.2,0.8-0.1,1.2
	c-2.4,0.3-1.9,2.3-3.7,3.6c2.7,0.5,3.1,2.8,5.2,4.6c-0.2,0.6-0.6,0.1-0.8,0.4c1.1,1.5,0.9,2.3-0.5,3.1c-0.3,1.2-0.4,1.3-1.3,2
	c-0.4-2.2-1.9-4-3.2-1.7c-1.4-0.2-2.5,0.5-3.7,0.6c0.3,2.1-0.9,3.3-3,3c-0.2,0.7-0.7,1.2-0.9,1.7c-1-1.5-7.2-4.7-9.1-3.2
	c-0.8,0.6,0.1,3.4-0.8,4.8c-1,1.4-4-0.4-3.3,3.4c0.3,0.2,1,0.7,1.2,0.8c-1.8,0.4-4,0.1-4.3,2.2c-0.4,0-1.2-0.1-1.6,0.1
	c0.4,0.9,0.4,2.5,0.7,3.3c-1.4-0.5-6.7,1.5-7.6,3.1c-1.1-1.9-3-1.7-5.1-1.3c-0.5,1.7,0,2.3,1.2,2.9l-3.4,21.8c0.2,5.7,3.3,8,6,12.8
	c3.7,6.5,6.3,11.4,12.3,16.2c16,12.6,34.7,13.8,54.4,15.6c10.2,1,20.4,3.2,30.6,4.2c5.5,0.5,11.1-0.2,16.6,0.5
	c4.7,0.6,9.4,1.8,14.1,2.4c7.2,0.9,15.8,0.6,22.8-1.5c6.3-1.9,6.5-3.1,9-8.7C842.4,1928.5,844.8,1920,842.9,1913.1z"/>
<path class="st29" d="M1950.6,1832.4c-5,0.1-10.1,0.3-14.5-1.2c-10.2-3.5-13.3-10.8-23.4-12.9c-22-4.7-39.4,3.9-47.4,20.2
	c-27.4-3.1-48.2,3.7-62.5,28.3c-13.7-0.5-23.7,8.5-17.5,20.9c-11.5,17.1-19.1,58.7-51.9,51c-8.8-15.7-51.3,4.8-62.4,13
	c-4.5-16.8-1.1-31.9-18.7-38.3c-17.2-6.3-30.5,10.7-46.4,10c-2.5-22.7-37.6-13-32.1-40.3c-5.8,1.7-11.5-1-17.3,1.9
	c-0.4-29-54.8-23.7-70.9-26.4c-4.3-44.8-96.6,53.4-57.5,68.2c-1.7,8.2-0.7,13.7-7.7,20.1c4.1,9.7,4,19.4,13.5,28.3
	c-13.9,20.9-74.1-7.7-84,30.5c-24.9-15.3-20.1,11.6-31.3,17.8c-12,6.6-30.9,0.2-43.2-1.7c-4.3,8.2-8.7,11.7-18.4,12.8
	c0.4,3.6-1.2,8.4-0.8,12c-12.5,6.3-27.6,1.4-41.2,5c-10.9,2.9-29.1,7.5-39,14c-14.6,9.6-12.5,13.6-31.1,20
	c-18.6,6.3-30.3,5.5-47.6,19.9c-7.9,6.5-13.9,19.5-22.2,24.5c-6.8,4.1-12.2,1.5-18.9,4.5c-18.7,8.3-27.6,18-44.3,31.4
	c-16.9,13.5-38.6,21.7-58.8,31.7h997.4V1832.4z"/>
<path class="st29" d="M1379.1,1980.5c-2.6-0.3-3.8-1.5-5.8-2c-2-0.5-4.4-0.3-6.3-0.7c-1.7-0.4-1.2-5.6-5.1-1.2
	c-1.1-1.6-2.7-1.4-4-2.4c-1.4,2.6-2.4,4.3-5.1,5.1c-2.6,0.7-5.2-5.1-6.5,0.5c-7.3,2.3-8.1-7.2-12.6-10.2c-2.4-1.6-15.4,0-11.8,7
	c-2.1,0.3-4.4,1-6.2,1.9c-5.4-6.6-4.4,2.4-4.8,4.5c0-0.1-1.8,4.6-1.8,4.6c-0.3,0.4-3.9,3.6-3.9,3.3c-1,4.2,2.1,5.3,2.6,9.5
	c0.2,1.7-1.9,2.1-2,3.8c-0.1,1.6,1.4,4.4,1.9,5.7c-1.9,0.6-5.4,1.7-7.5,1.6c-2.6-0.2-4.3-1.8-7.2-2.2c-5.7-0.8-7.2,5.4-12.7,3.9
	c-0.5-5-5.7-4.7-9.7-4.5c0-2.4,0.4-4.5,0.4-6.9c-4.9-1.4-5.7,5.7-10.3,6.8c-8,2-5-8.8-10.8-5.8c-3.9,2-4.5,7.4-9.1,9.8
	c-5.6,2.9-7.5,0.2-13.9,0.5c-1.6-3.4-3.4-0.2-5.1-1c-2.5-1.1-2.6-2.4-4.7-4c-3-2.4-8.1-2.9-9.7,2.5c-1.3-0.6-3.7-0.5-4.9-1.1
	c-3.9,6.2-11.6,6.9-12.3,13.4c-0.5,4.5,2.9,4.9-0.5,9c-1.5,1.7-9.1,2.3-2.8,5.2c0,0,0.1,1.9,0,1.7c-5.1-1-7.9,4.3-2.6,6
	c0,0,0,1.7,0,1.7c-2.1,0.7-4.2,1.4-6.2,2.1c1.1,5.6-2.8,3.2-5.9,4.4c-3,1.2-6,3.6-9.5,3.3c-0.8,1.9,0.2,5.4-0.7,7
	c-1.2,2.1-4.7,3.6-6.9,5.3c-3.6,2.8-8.4,4.7-11.8,7.5c-2.4,2-2.3,4.2-3.8,5.8c-1.9,2.1-4.4,3.6-6.3,5.9c-4.1,5-5.8,9.1-6.6,15.3
	c-1,8.5-4.8,14.6,7,12.8c16-2.4,31.7-8.3,47.8-10.8c15.3-2.4,30.5-2.6,45.4-7.1c18.7-5.5,37.4-11.1,55.9-17.2
	c18.2-6,37.2-11.5,54.5-20.2c10.2-5.1,19.1-12.4,29-17.8l19.3-63C1382.6,1978.7,1381.5,1980.8,1379.1,1980.5z"/>
<path class="st29" d="M1609,1913.1c-0.6,0.1-1.4-0.2-2-0.1c-0.7-4-2.1-4.6-5.2-6.4c-2.4-1.3-5.9-2.4-5.2-5.9
	c-3.2-2.1-8.3,1.5-8.4-4.3c0.2,0,0.5-0.1,0.7-0.1c-0.2-3.9-4.6-3.1-6.3-0.7c-4.8-3.9,0.2-11.8-3.8-15.4c-3.4-3-13.5-1.1-14.6-6.1
	c-0.8-4,2.7-2.6,3.6-5.5c1-3.4-3.8-2.2-5.6-4.5c-0.7-0.9,0.2-2.8-0.5-3.9c-1.7-2.4-1.9-1-3.9-1.6c-3.4-1-4-0.9-6.5-3.4
	c-2.9,0.1-4,3.9-7.1,2.6c-0.1,0.6-0.6,1.2-0.6,2c-2.5,0.4-4-1.3-3.4-3.7c-7.2,0-1-9.4-7.1-10c-0.5-1.5-0.7-3-0.4-4.6
	c1.4-0.8,1.3-2.2,0.7-3.9c-4.2-0.2-4.1-3.6-3.4-6.4c-0.8-0.1-1.2-0.5-2-0.6c-0.7-4.1-7.1-3.5-6.6,0.4c-3.4,1-4.9-2.9-7.2,0.1
	c-1.1,1.4-0.2,5.6,0,7.2c-0.6,0.1-1.4,0.2-2,0.1c-0.2,0.3,0.1,0.9-0.1,1.2c-1.9,0-1.7,1.4-2.5,1.8c-0.2,0.1-2,0.9-2.1,1
	c-1.8,1-4.3-1-3.9,3.7c-1.9,0.1-3.9,0.1-5.9,0c0.9-5-3.3-4.4-6.9-4.1c0.3,0.2,0.7,0.9,1.1,1.2c-4.9-0.5-4.6-5.1-8.8-6.1
	c-0.6-7-5.4-3.1-9.8-4.1c0,0.5-0.1,1.1-0.1,1.6c-3.5,1-3.2-2.9-5.8-3.7c-0.1,0.1-0.4,0.7-0.5,0.9c-1.2-0.6-2.2-0.2-3.4-0.4
	c-0.2,0.3,0,0.8-0.1,1.2c-0.3,0.3-0.9-0.2-1.2,0.1c0,0.5,0,1.1-0.1,1.6c-0.7-0.1-1.7,0.2-2.4,0.1c0.1,3.1-3.1,2.1-5.1,1.7
	c0.2,0.6,0.1,1.4,0.3,2c-3.9,0.1-5.6-2.1-10.2-0.7c-0.7,0.7-1.5,2.1-1.4,3.7c-0.5,0.2-1,0.4-1.6,0.6c0.1,0.7-0.2,1.7-0.1,2.4
	c-4.7,0.8-3.4,2.4-3.3,5.5c0.1,1.6,1.5,1.4,0.8,3.5c-0.3,1-2.4,2.3-3,3.3c1.4,0.6,3,0.7,4.6,0.6c0.5,2.9-2.7,3.4-2.6,6.3
	c-1.5,0.3-2.5,1.4-3,3c-0.5,0-1.1,0.1-1.6,0.1c0.4,0.4,0.6,1.9,1.3,2.5c-2.3,1.8-1.2,4.4-2.6,6.4c-2.6,3.9-4.8-0.3-7.8,1.3
	c-2.4,1.3-0.5,4.5-5.1,4.7c-4.5,0.3-4.6-3-8.1-4.3c-0.9,2.5-7.1,3.7-4.4,6.7c-3,0.9-1.1,3.7,0.5,4.8c-0.8,0.8-2.5,2.5-2.6,3.8
	c-0.1,2.1,1.3,1.8,1.7,3c0.5,1.7,0.1,3.8,1.6,5.2c-2.1,0.1-8.2,2.9-8.5,5.2c-0.2,1.2,3.9,6.7,5.1,6.9c0.9,1.1,0.9,1.5,2.3,2.5
	c-1.5,1.2-2.4,3.2-0.9,4.7c-1.8,3.4-7.7,0.6-10.3,0.8c-3.3,0.2-7.4,5.2-1.8,5.3c0.1,2.3-0.9,5.6,2.2,5.6c-0.3,5.8,2.9,7.9,7.7,5.8
	c2.2-1,1.3-2.6,4.4-1.1c1.1,0.5,1.7,5.8,4.3,1.6c2.6,1.3,0.8,4.6,0.9,6.9c0.1,4,1.2,4.2,3.9,6.4c-0.8,1.9-0.4,4.2-0.5,6.4
	c-1-0.2-2.3,0.3-3.3,0.1c-0.9,1.8,0,3.5-0.5,5c-0.6,2-3.1,1.8-1.8,4.7c-3.2,0.3-9.7-3.2-8.6,2.1c-0.9,0.1-3.5-0.9-3.9-0.7
	c-1.1,0.5-1.3,1.7-2.1,2c-1.2,0.5,0.4,1.9-2.2,1.4c-0.4-0.1-1.5-2.7-2-3.2c-1.7,1.1-2.7,3-2.6,5.1c-0.7-0.1-1.7,0.3-2.4,0.1
	c-0.7,6.5-8.6,0.1-7.9,7.1c-2.5,0.9-6.2,2.5-8.1,4.9c-3.4,4.4,0.4,7.5,5.2,7.2c3.1-0.2,5.7-2,8.8-2.5c3.2-0.5,6.7,0.1,9.9-0.2
	c9.9-0.8,20-2.8,30-2c6.3,0.5,11.8-1.1,18-1c6.7,0.1,12.2,0.7,18.9-0.3c5-0.7,10,0,15-0.5c6.4-0.7,12.5-2.1,18.9-2.6
	c12.8-1,24.8-9.1,37.6-11.3c7.4-1.2,13.8-3.2,21.3-3.2c3.9,0,7.7-0.6,11.7-0.5l38.5-46.1C1607.6,1921.9,1609.3,1916.2,1609,1913.1z"
	/>
<path class="st29" d="M1965.7,1823.7c-1.2-4.9-6-7.9-7.9-11.9c-1.8-3.9-2.1-9.9-8.3-6.7c-0.7-9.5-7.4-3.7-13.5-5.1
	c-4.8-1.1-2.1-0.6-5.1-4.5c-1.4-1.8-3.9-4.3-4.6-6.3c-0.7,0-1.7,0.1-2.4-0.2c-0.9-3.3,1.4-5.8,3.8-7.6c-2.6-3-6.4-8.4-10.3-2.8
	c0.2-7-3.4-7-9.1-7.5c-4.2-0.4-9.8-2.9-14-2.5c-0.4,3.5-4.7,3.8-2.1,7.5c-1.7,0.2-3.1,1.1-4.9,0.9c-2.4,3.5-3.9,6.4,0.6,8.9
	c-0.9,0.3-1.5,1.3-3.2,1.4c-1.7,7,16.2,11.2,7.5,20.3c-4.2-1.1-14,0.4-12.8,6.4c-1.2,0.4-3.7,0.4-4.9,0c0.8-8.1-3.7-4.9-8.4-8.4
	c0.9-2.2,2.5-4.3,2.6-6.9c0.7,0.3,1.7,0.3,2.3,0.5c2.5-4.1-0.5-7.6-4.4-4c1.5-3.5,0.7-8-3-9.5c-0.5-3,0.1-6,0.4-8.8
	c-3.1-0.2-6.3-0.2-9.4,0c-2,1.6-5.4,1.5-4.8,4.4c-2.2,0.8-2.2,2.2-3.6,3.7c1,0.4,1.8,1.7,2.6,2.1c-0.7,1.9-1.1,2.8-1.5,5
	c-7.3-0.9-2.7,6.5-6.4,8.5c-6.7-6.5-3.3,8.9-1.3,11.5c-1.1,4.4-3.6,3.2-6.8,5.9c-2.2,1.9-5.8,3.9-1.3,6.9
	c-2.8,3.1-22.4-0.4-18.1,8.9c-7,4.3-19.2,0.6-14.8,13.5c-10.1-1.9-5.4,6.9-7.2,9.6c-2.7,4.3-11,1.3-11.3,9.1c2.4,0.1,5,0,7.4,0.2
	c-9,3.6-12.1,11.8-12,20.4c0,6.2,1.5,7.2-5.1,9c-5.4,1.5-11.4-0.7-8.3,7.6c1.5-0.1,2.8,0.9,4.3,0.8c0.2,4.1-6.6,7-7.7,12
	c-3.9,0.2-4.4,4.5-9.6,5.1c-3.5,0.4-7.3-0.9-10.8-1.2c0.2-4.5-7-8.1-9.1-4c-2.3-3.5-6-3-9-5c-0.2,0.4-1.1,1.3-1.4,2
	c-1.5-2.6-4.3-4-7-2.1c1.2-4.5-5.4-7.8-6.5-3.1c-2.7-0.8-1.4-4.1-3.1-6.5c-1.8-2.6-6.1,0.8-5.3-4.9c-2.7,0.2-5.4-0.3-6.9-2.5
	c0.8-0.3,1.4-0.6,2.4-0.9c1.6-2.8,3.4-6.4-0.5-7.5c5.7-0.9,4.7-4.4,1.2-6.1c-3.4-1.6-7.1,1.6-9-1.8c-1.5-2.6,0.8-5.4,0.2-7.9
	c-1.1-4.5-5.2-5.6-1.5-10.7c-7.1,0.6-6.9-9.7-12-9c-0.6,4.5-7.1,3.8-4,9.4c-3.8,1.1-10.5,1.1-7.7,7.1c-2.8,0.9-3.1,3.3-1.9,5.8
	c-8.8,2.7-1.7,9.4,1.5,12.3c1.3,1.2,5.5,3,5,5.8c-0.6,4.1-5.2,2.1-7,0.7c-1.3,4.5,3.9,5.8,2.3,10.7c-2.7,0.5-5.4,2.2-8.2,2.1
	c-3-0.1-4.7-5.1-6.6-0.1c-2.9-1.8-6.2-1.4-7.1,2.6c-3-0.1-5.2,1.5-5.1,4.5c-2.4,0.2-6,1.5-8.2,0.7c-2.4-0.8-2.6-4.2-4.5-4.5
	c-4.4-0.8-9.5,6.2-11.4,9.2c-5.7,8.5-4.7,22.7,3.5,29.4c24.4,19.8,53.9,9.1,81.8,12.3c5.1,0.6,9.6,3.7,14.7,4.4
	c6.2,0.8,14.3,0.6,20.4-0.1c16.3-2.1,33.6-10,48.3-17c7.5-3.6,13.8-9.1,21.4-12.2c4.9-2,9.5-4,14.4-6.4c13.7-6.7,28-10.9,41.7-17.3
	c8.5-4,17.2-7,25.4-11.6c5.9-3.3,10.9-7.8,16.7-11.1c6.6-3.7,15-1.2,21-6.4l34.7-36.6c5.2,0.9,12.6-2.1,15.6-8.2
	C1969.5,1831.8,1973.7,1822,1965.7,1823.7z"/>
<path class="st29" d="M1139.2,2197.5c-9.8-5.8-19.3-12.1-28.5-19.5c-25.2-20.3-45.1-45.4-72.6-62.2c-22.3-13.6-44.2-26.5-65.9-40
	c-30.9-19.1-72.5-26.6-106.2-39.1c-9.7-3.6-14.3-3.2-20.1-3c-24.7-20.2-67.7-28.4-88.9-10c-0.1-8.1-4.5-6.6-10.2-7.4
	c2,0.3-16.5,3.5-14.4,2.6c-5.4,2.4-7.4,7.7-12,10.1c-4.4,2.3-10.4,0.2-15.4,3.7c-2.3-5.2-7.1-4.8-11.7-1.4
	c-5.5-6.6-8.1,1.1-13.6-3.6c-5-4.3,2.5-10.8-7-13.1c8.8-12.7-5.6-11.2-13.3-8.9c-0.8-9.6-19.5-14.8-24-5.1c-0.6-0.5-1.4-1.7-2.2-2.3
	c-5.4,0.7-8.6,4.2-7.8,9.6c-3.9-0.8-29.3,24.3-34.9,28.6c-7.3-5.5-20.7-0.6-18.4,8.1c-5.7-7.6-37.4-4.6-42.8,1
	c-4.4-10-7-0.3-13.1-1.4c-5-0.9-5.3-8.1-14.3-6.4c-0.2-2.1-1.6-3.9-1.8-6c-10.7,1.7-5.6-11.8-17.8-9.4c-0.8-5.1-4-7.2-9.1-6.4
	c1.2-7.3-4.2-10.4-10.9-8.8c0.3-0.6,0.2-2.2,0.1-2.3c-1.4,0.5-5.1,0.5-6.7,0.8c1.7-6.3-2.1-8.8-8.3-7.3c1.4-7.8-7.5-12.8-10.9-18.1
	c-4-6.2-10.8-20.8-17.3-2.7c-3.2-3.9-4.2-3.4-9.8-2.7c-2.4-6.5-8.3-5.7-12-0.2c0.1-5.6-3.3-7.3-8.8-6.2c1.2-6.2-1.3-9.8-7.8-9
	c-0.2-6.8-4.9-11.9-11.7-9c1.2-7-3.4-12.2-10.4-9c-1.3-6.5-6.8-6.1-11.7-2.6c-1.5-7-7.5-7.8-13-3.8c-1-5.4-4.8-9-10.5-9.1
	c1.3-11.3-24.3-14.6-27.8-5.2c-5.9-0.4-9.5,3.2-9.1,9c-2.2-0.3-5.3,0.8-7.4,0.4c-0.4,1.7-1.2,3.1-1.8,4.8c-4.7-0.2-5.4-0.4-9.8,1.3
	c-3.1-4-6.8-1.2-9.8,3.6c-4.4-2.4-8.6-1.2-13.9-2.2c-2.8-0.5-6.2,0.9-8.9-0.2c-2.3-0.9-1.1-5.2-3.1-5.9c-7.2-2.4-26.9-6.7-27.3,3.5
	c-6-2.5-13.9-2.6-15.6,5.1c-7.8-3.1-15.6-1-18,7.7c-3.2-4.1-6.9-4.8-10.5-0.3c-0.2-2.7-2.1-4.3-2.4-6.2c-1.5,2-6.1,4.3-7.6,6.4
	c-1-2.4-3.2-3.5-4.2-5.1c-3.6,3.7-5.7,8.3-10.3,10.7c-10.9,5.5-4.5,1-12-2.9c-1.9-1-7.3-0.2-8.6-1.5c-1.1-1.1-1.5-6.1-1.5-6.2
	c-4.1-2-5.3-5-12.8-2.8c0.3-6.5-3.9-7.4-9.4-5.1c-2-6.6-8.1-5.2-14-3.9c-2.9-4.9-0.6-3.3-6.5-5.1c-2.3-4.9-1.8-4.9-7.8-6.4
	c-1.1-7.3-8.6-6.2-11.9-0.3c-0.8-7.3-7.5-11.2-13.3-6.2c-5.9-2.3-12.2,1.7-11.3,8.7c-5.3-1.8-8.7,0.9-9.5,6.8
	c-9.6-9.1-36.8,10.3-44,18.3c-7.6,8.4-10.5,13.1-8.1,23.2c0.2,0.6,4.8,11.2,5.5,12.5c0.1,0.2,0.2,0.4,0.3,0.6v214.1H1139.2z"/>
<g>
	<path class="st24" d="M1320.5,904.5c-20.4,5.7-42.5-14.9-61.9-18.5c-11.1-2.1-23-3.2-33.9,0.5c-5.5,1.9-9.8,4.9-14.8,8
		c-0.4,0.3-0.9,0.6-1.4,1c-7-14.8-17.9-25.7-36.4-29.4c-12.3-2.5-24.1-5.1-35.4-10.9c-8.1-4.2-15.9-10.2-25.1-10.8
		c-0.3,0-0.4,0-0.6,0c10.1,18.5,32.1,25.3,51.3,33.7c3.5,1.5,6.9,3.1,10.2,5.1c2.3,0.6,4.5,1.3,6.5,2.3c9.2,4.2,12.3,12,14.7,20.7
		c0.6,1.7,1.1,3.5,1.5,5.3c1.6,5.3,7.7,9.7,13.4,8.8c6.4-4.1,13-7.7,19.9-10.4c3.5-2,7-3.7,11-4.3c3.3-0.6,6.6-0.7,9.8-0.6
		c3.2-0.3,6.4-0.3,9.8-0.1c20.5,1.3,45.3,15,62.8-0.3C1321.3,904.4,1320.9,904.4,1320.5,904.5z"/>
	<path class="st24" d="M1379.7,997c1.2,0.1,2.4,0.1,3.5,0.3c5.1,0.9,7.6,4.4,9.9,8.4c0.5,0.8,1,1.6,1.4,2.5c1.5,2.4,5.1,3.8,7.7,2.6
		c2.7-2.9,5.5-5.5,8.5-7.7c1.5-1.4,3-2.7,4.9-3.5c1.6-0.7,3.2-1.2,4.8-1.5c1.6-0.5,3.2-1,4.8-1.3c10.3-1.9,24.4,1.6,31-8.2
		c-0.2,0-0.4,0.1-0.6,0.2c-9.4,5.4-22.9-2-33-1.3c-5.7,0.4-11.8,1.4-16.7,4.6c-2.5,1.6-4.2,3.7-6.3,5.8c-0.2,0.2-0.4,0.4-0.6,0.7
		c-5.4-6.4-12.1-10.4-21.8-9.9c-6.4,0.4-12.6,0.6-18.9-0.9c-4.5-1-9.1-3-13.8-2.1c-0.1,0-0.2,0-0.3,0.1c7.3,7.8,19.1,8.4,29.7,10.1
		C1375.9,996.2,1377.8,996.6,1379.7,997z"/>
	<path class="st24" d="M1082.2,941.7c-5.6-1.3-11.7-2.2-17.3-0.6c-2.9,0.8-5.2,2.3-7.7,3.7c-0.2,0.1-0.5,0.3-0.7,0.5
		c-3.2-7.7-8.5-13.6-17.8-15.9c-6.2-1.6-12.2-3.2-17.7-6.5c-4-2.4-7.8-5.6-12.6-6.2c-0.1,0-0.2,0-0.3,0c4.7,9.7,15.8,13.7,25.3,18.5
		c1.7,0.9,3.4,1.8,5.1,2.8c1.2,0.4,2.2,0.8,3.3,1.3c4.6,2.4,5.9,6.4,6.9,10.9c0.3,0.9,0.5,1.8,0.6,2.8c0.7,2.8,3.7,5.2,6.6,4.8
		c3.4-1.9,6.9-3.6,10.5-4.8c1.8-1,3.7-1.7,5.7-1.9c1.7-0.2,3.4-0.2,5-0.1c1.6-0.1,3.3,0,5,0.2c10.4,1.2,22.8,8.8,32,1.5
		c-0.2,0-0.4,0-0.6,0C1102.8,955.1,1092,944.1,1082.2,941.7z"/>
	<path class="st24" d="M904.3,784.1c-9-0.4-18.7,0-27,4.1c-4.2,2.1-7.4,5-11,7.9c-0.4,0.3-0.7,0.6-1,1c-7.2-11.1-17-18.6-32.2-19.6
		c-10.1-0.7-19.8-1.5-29.4-5c-6.8-2.5-13.7-6.4-21.2-5.9c-0.2,0-0.4,0.1-0.5,0.1c10.1,13.6,28.4,16.7,44.6,21.4
		c2.9,0.9,5.8,1.8,8.7,3c1.9,0.2,3.7,0.6,5.4,1.1c7.8,2.4,11.1,8.3,13.9,15c0.7,1.4,1.2,2.7,1.7,4.1c1.8,4.1,7.2,6.9,11.6,5.6
		c4.7-4,9.5-7.6,14.8-10.5c2.6-2,5.2-3.7,8.3-4.6c2.6-0.8,5.2-1.3,7.7-1.5c2.5-0.5,5.1-0.9,7.8-1.1c16.5-1.1,37.8,7.1,50.1-7
		c-0.3,0.1-0.7,0.1-1,0.2C940,799,920.2,784.9,904.3,784.1z"/>
	<path class="st24" d="M1012.8,859.8c1-0.2,1.9-0.2,2.8-0.2c4.2,0.2,6.6,2.7,8.8,5.6c0.5,0.6,1,1.2,1.4,1.8c1.4,1.8,4.4,2.5,6.4,1.3
		c1.8-2.6,3.8-5,6-7.1c1-1.3,2.1-2.5,3.5-3.3c1.2-0.8,2.4-1.3,3.7-1.8c1.2-0.6,2.4-1.1,3.7-1.6c8-2.7,19.6-1.3,23.9-9.8
		c-0.1,0-0.3,0.1-0.4,0.2c-6.9,5.3-18.5,0.9-26.5,2.5c-4.5,0.9-9.3,2.4-12.8,5.5c-1.8,1.6-3,3.4-4.4,5.3c-0.2,0.2-0.2,0.4-0.4,0.6
		c-5-4.6-10.8-7-18.4-5.6c-5.1,1-10,1.8-15.2,1.3c-3.7-0.4-7.6-1.4-11.3-0.2c-0.1,0-0.1,0.1-0.2,0.1c6.7,5.5,16.2,4.6,24.8,4.9
		C1009.7,859.5,1011.3,859.6,1012.8,859.8z"/>
	<path class="st24" d="M769.5,847.5c-4.6-0.5-9.5-0.5-13.9,1.4c-2.2,1-3.9,2.3-5.8,3.8c-0.2,0.1-0.3,0.3-0.5,0.4
		c-3.4-5.8-8.2-9.9-15.9-10.8c-5.1-0.6-10.1-1.3-14.9-3.3c-3.4-1.5-6.8-3.6-10.7-3.6c-0.1,0-0.2,0-0.2,0c4.8,7.2,14,9.3,22.2,12.1
		c1.5,0.5,2.9,1.1,4.3,1.7c1,0.1,1.9,0.4,2.8,0.7c3.9,1.4,5.5,4.5,6.7,8c0.3,0.7,0.6,1.4,0.8,2.2c0.8,2.1,3.5,3.7,5.8,3.1
		c2.5-1.9,5.1-3.6,7.8-5c1.4-0.9,2.8-1.7,4.3-2.1c1.4-0.3,2.7-0.5,4-0.6c1.3-0.2,2.6-0.4,4-0.4c8.4-0.2,19.1,4.6,25.7-2.3
		c-0.2,0-0.4,0-0.5,0.1C787.4,856,777.6,848.3,769.5,847.5z"/>
	<path class="st24" d="M1703.3,852c2.6,0.9,5.1,1.9,7.5,3c1.7,0.3,3.3,0.7,4.8,1.2c6.9,2.5,9.5,7.9,11.7,14c0.5,1.2,1,2.5,1.4,3.7
		c1.5,3.7,6.1,6.5,10.1,5.5c4.3-3.4,8.9-6.3,13.7-8.6c2.3-1.6,4.8-3,7.6-3.7c2.4-0.6,4.7-0.9,7-1c2.3-0.4,4.6-0.6,7-0.7
		c14.7-0.3,33.3,8.1,44.9-3.9c-0.3,0-0.6,0-0.9,0.1c-14.2,5.3-31.2-8.2-45.4-9.7c-8-0.8-16.7-0.9-24.2,2.4c-3.9,1.7-6.8,4-10.1,6.6
		c-0.3,0.2-0.6,0.5-0.9,0.8c-5.9-10.2-14.3-17.3-27.7-18.9c-8.9-1.1-17.5-2.2-26-5.7c-6-2.5-11.9-6.4-18.6-6.3c-0.2,0-0.3,0-0.4,0
		C1672.9,843.5,1689.1,847.1,1703.3,852z"/>
	<path class="st24" d="M1895.9,915.1c-4.1,0.6-8.4,1.7-11.7,4.3c-1.7,1.3-2.8,2.9-4.2,4.6c-0.1,0.2-0.2,0.3-0.4,0.5
		c-4.2-4.3-9.3-6.8-16.1-5.8c-4.5,0.6-8.9,1.2-13.5,0.5c-3.3-0.5-6.7-1.6-10-0.7c-0.1,0-0.1,0-0.2,0.1c5.7,5.1,14.2,4.9,21.8,5.5
		c1.4,0.1,2.8,0.3,4.1,0.6c0.9-0.1,1.7-0.1,2.5,0c3.7,0.3,5.7,2.7,7.6,5.4c0.4,0.5,0.8,1.1,1.2,1.7c1.2,1.7,3.8,2.4,5.7,1.4
		c1.7-2.2,3.6-4.2,5.7-6c1-1.1,2-2.1,3.3-2.8c1.1-0.6,2.2-1.1,3.3-1.4c1.1-0.5,2.2-0.9,3.4-1.2c7.3-2,17.5-0.3,21.7-7.6
		c-0.1,0-0.3,0.1-0.4,0.1C1913.2,918.5,1903.1,914,1895.9,915.1z"/>
	<path class="st24" d="M1631.9,905.9c-0.2,0.2-0.4,0.3-0.5,0.4c-2.7-5.4-6.9-9.2-13.7-10.4c-4.5-0.8-8.9-1.6-13.1-3.6
		c-3-1.4-5.9-3.5-9.4-3.7c-0.1,0-0.2,0-0.2,0c3.9,6.7,12.1,8.9,19.2,11.8c1.3,0.5,2.6,1.1,3.8,1.7c0.8,0.2,1.6,0.4,2.4,0.8
		c3.5,1.4,4.7,4.3,5.7,7.4c0.3,0.6,0.4,1.3,0.6,1.9c0.6,2,2.9,3.5,5,3.1c2.3-1.6,4.7-3,7.2-4.1c1.3-0.8,2.5-1.4,4-1.7
		c1.3-0.3,2.4-0.4,3.6-0.4c1.2-0.2,2.4-0.2,3.6-0.2c7.5,0.3,16.8,5,23-0.8c-0.2,0-0.3,0-0.4,0c-7.4,2.3-15.8-5-22.9-6.1
		c-4.1-0.6-8.5-0.9-12.5,0.6C1635.2,903.6,1633.7,904.8,1631.9,905.9z"/>
	<path class="st24" d="M1464.1,808.8c1.3,0,2.7,0.2,3.9,0.5c5.7,1.3,8.4,5.3,10.9,9.9c0.5,0.9,1.1,1.9,1.5,2.9
		c1.6,2.8,5.6,4.5,8.6,3.3c3.1-3.1,6.4-6,10-8.4c1.7-1.6,3.5-2.9,5.7-3.8c1.8-0.7,3.6-1.2,5.5-1.6c1.8-0.5,3.6-0.9,5.5-1.2
		c11.7-1.8,27.5,2.8,35.4-7.9c-0.2,0-0.5,0.1-0.7,0.2c-10.8,5.7-25.8-3.2-37.2-2.8c-6.5,0.2-13.4,1.1-19.1,4.5c-2.9,1.8-5,4-7.4,6.3
		c-0.2,0.2-0.4,0.5-0.7,0.7c-5.8-7.5-13.2-12.3-24.1-12.1c-7.3,0.1-14.3,0.1-21.3-1.8c-5.1-1.4-10.2-3.8-15.5-3
		c-0.2,0-0.3,0.1-0.4,0.1c8,9.1,21.3,10.3,33.1,12.7C1459.9,807.7,1462.1,808.2,1464.1,808.8z"/>
	<path class="st24" d="M1591.8,847.7c1.1-0.1,2.2-0.1,3.4,0c0.7-0.2,1.3-0.3,2-0.3c3-0.1,4.9,1.6,6.6,3.5c0.4,0.4,0.8,0.8,1.1,1.2
		c1.1,1.2,3.4,1.5,4.7,0.5c1.2-1.9,2.4-3.8,3.9-5.4c0.6-1,1.4-1.9,2.3-2.6c0.8-0.6,1.6-1.1,2.5-1.5c0.8-0.5,1.7-1,2.5-1.3
		c5.6-2.4,14-2.1,16.5-8.4c-0.1,0-0.2,0.1-0.3,0.2c-4.6,4.2-13.2,1.7-18.8,3.4c-3.2,1-6.5,2.2-8.9,4.7c-1.2,1.2-1.9,2.6-2.8,4.1
		c-0.1,0.1-0.2,0.3-0.2,0.4c-3.8-3-8.2-4.4-13.5-2.9c-3.6,1-7.1,1.9-10.8,1.9c-2.7,0-5.6-0.6-8.1,0.5c-0.1,0.1-0.1,0.1-0.2,0.1
		C1578.9,849.2,1585.7,848,1591.8,847.7z"/>
	<path class="st24" d="M1391.9,855.5c1.1,0.3,2.1,0.6,3.2,1c0.7,0.1,1.4,0.2,2.1,0.4c2.9,0.8,4.1,2.9,5.2,5.3c0.3,0.5,0.5,1,0.7,1.5
		c0.7,1.5,2.7,2.4,4.3,1.9c1.7-1.5,3.4-2.9,5.3-4c0.9-0.8,1.9-1.4,3-1.8c0.9-0.3,1.9-0.5,2.8-0.6c0.9-0.3,1.8-0.4,2.8-0.5
		c6-0.6,13.9,2.1,18.2-3.1c-0.1,0-0.3,0-0.3,0.1c-5.7,2.7-13.1-2.3-19-2.4c-3.4-0.1-6.9,0.2-9.9,1.8c-1.5,0.8-2.6,1.9-3.9,3
		c-0.2,0.1-0.3,0.2-0.4,0.4c-2.8-4-6.4-6.6-12-6.8c-3.7-0.1-7.3-0.3-10.9-1.5c-2.5-0.8-5.1-2.2-7.9-1.9c0,0-0.2,0-0.2,0
		C1379.2,853,1385.9,854,1391.9,855.5z"/>
	<path class="st24" d="M807.9,1433.6c-18.3,5.1-38.1-13.4-55.6-16.6c-9.9-1.9-20.7-2.9-30.5,0.5c-4.9,1.7-8.8,4.4-13.3,7.2
		c-0.4,0.3-0.8,0.6-1.2,0.9c-6.3-13.3-16.1-23-32.7-26.4c-11-2.2-21.7-4.6-31.8-9.8c-7.2-3.8-14.3-9.1-22.6-9.7c-0.2,0-0.4,0-0.6,0
		c9.1,16.6,28.9,22.7,46.1,30.3c3.1,1.4,6.2,2.8,9.2,4.5c2,0.5,4,1.2,5.9,2c8.3,3.8,11.1,10.8,13.2,18.6c0.5,1.5,1,3.2,1.3,4.8
		c1.4,4.8,6.9,8.7,12,7.9c5.7-3.7,11.7-7,17.9-9.4c3.1-1.8,6.3-3.3,9.8-3.8c3-0.5,5.9-0.6,8.8-0.5c2.9-0.2,5.8-0.3,8.8-0.1
		c18.4,1.2,40.7,13.4,56.4-0.3C808.6,1433.5,808.2,1433.5,807.9,1433.6z"/>
	<path class="st24" d="M595.7,1303.8c1.1,0,2.2,0.1,3.1,0.3c4.6,0.8,6.8,3.9,8.9,7.6c0.5,0.7,0.9,1.4,1.2,2.2
		c1.3,2.2,4.6,3.4,6.9,2.3c2.4-2.6,4.9-4.9,7.7-7c1.3-1.3,2.7-2.4,4.4-3.2c1.5-0.6,2.9-1,4.3-1.4c1.4-0.5,2.8-0.9,4.3-1.2
		c9.3-1.8,21.9,1.4,27.9-7.3c-0.2,0-0.4,0.1-0.5,0.2c-8.4,4.9-20.6-1.8-29.7-1.2c-5.2,0.4-10.6,1.2-15,4.2c-2.2,1.5-3.8,3.3-5.6,5.2
		c-0.2,0.2-0.3,0.4-0.5,0.6c-4.8-5.8-10.9-9.3-19.5-8.9c-5.8,0.3-11.3,0.5-17-0.8c-4-0.9-8.2-2.7-12.4-1.9c-0.1,0-0.2,0-0.3,0.1
		c6.6,7.1,17.2,7.6,26.7,9.1C592.3,1303,594,1303.3,595.7,1303.8z"/>
	<path class="st24" d="M267.7,1599.8c-5-1.2-10.5-2-15.6-0.5c-2.6,0.7-4.6,2-7,3.3c-0.2,0.1-0.4,0.2-0.6,0.4
		c-2.9-7-7.6-12.2-16-14.3c-5.6-1.4-10.9-2.9-15.9-5.8c-3.6-2.1-7-5-11.3-5.6c-0.1,0-0.2,0-0.3,0c4.2,8.7,14.2,12.3,22.7,16.6
		c1.6,0.8,3,1.6,4.5,2.5c1,0.3,2,0.7,2.9,1.2c4.2,2.2,5.3,5.8,6.2,9.8c0.3,0.8,0.4,1.6,0.5,2.5c0.6,2.5,3.3,4.6,5.9,4.3
		c3-1.7,6.2-3.2,9.4-4.3c1.6-0.9,3.3-1.5,5.1-1.7c1.5-0.2,3.1-0.2,4.5,0c1.4-0.1,2.9,0,4.5,0.1c9.4,1.1,20.4,7.9,28.8,1.3
		c-0.2,0-0.4,0-0.6,0C286.2,1611.9,276.5,1601.9,267.7,1599.8z"/>
	<path class="st24" d="M274.7,1379.1c-8.1-0.4-16.8,0-24.2,3.7c-3.8,1.9-6.7,4.5-9.9,7.1c-0.3,0.2-0.6,0.5-0.9,0.9
		c-6.4-10-15.3-16.7-28.9-17.6c-9-0.6-17.8-1.3-26.4-4.5c-6.1-2.2-12.3-5.7-19-5.3c-0.2,0-0.3,0.1-0.5,0.1c9,12.3,25.5,15,40,19.2
		c2.6,0.8,5.2,1.6,7.8,2.7c1.7,0.2,3.3,0.5,4.9,1c7.1,2.2,9.9,7.4,12.5,13.4c0.6,1.2,1.1,2.4,1.6,3.7c1.6,3.7,6.5,6.2,10.4,5
		c4.2-3.6,8.6-6.8,13.3-9.4c2.3-1.8,4.7-3.3,7.5-4.1c2.3-0.7,4.6-1.1,6.9-1.4c2.3-0.5,4.6-0.8,7-1c14.8-1,34,6.4,45-6.3
		c-0.3,0-0.6,0.1-0.9,0.2C306.9,1392.4,289,1379.8,274.7,1379.1z"/>
	<path class="st24" d="M372.3,1447.1c0.9-0.1,1.7-0.2,2.5-0.1c3.8,0.1,5.9,2.4,7.9,5c0.5,0.5,0.9,1.1,1.2,1.7c1.3,1.6,4,2.2,5.8,1.2
		c1.6-2.3,3.4-4.5,5.4-6.4c0.9-1.2,1.9-2.2,3.1-3c1.1-0.7,2.2-1.2,3.3-1.6c1.1-0.5,2.1-1,3.3-1.4c7.2-2.4,17.6-1.2,21.4-8.8
		c-0.1,0-0.3,0.1-0.4,0.2c-6.2,4.8-16.6,0.8-23.8,2.3c-4.1,0.8-8.3,2.1-11.5,4.9c-1.6,1.4-2.7,3-3.9,4.8c-0.1,0.1-0.2,0.3-0.3,0.5
		c-4.5-4.1-9.7-6.3-16.6-5c-4.5,0.9-9,1.6-13.6,1.2c-3.3-0.3-6.8-1.2-10.1-0.2c-0.1,0-0.1,0.1-0.2,0.1c6,4.9,14.5,4.2,22.3,4.4
		C369.5,1446.8,370.9,1446.9,372.3,1447.1z"/>
	<path class="st24" d="M153.6,1436.1c-4.1-0.4-8.6-0.5-12.5,1.2c-2,0.9-3.5,2.1-5.2,3.4c-0.1,0.1-0.3,0.2-0.5,0.4
		c-3-5.2-7.4-8.9-14.3-9.7c-4.6-0.5-9-1.1-13.4-2.9c-3.1-1.3-6.1-3.3-9.6-3.2c-0.1,0-0.1,0-0.2,0c4.3,6.5,12.6,8.3,20,10.8
		c1.3,0.4,2.6,0.9,3.9,1.5c0.9,0.1,1.7,0.3,2.5,0.6c3.6,1.3,4.9,4,6.1,7.2c0.3,0.6,0.5,1.3,0.7,1.9c0.7,1.9,3.2,3.3,5.2,2.8
		c2.2-1.7,4.6-3.3,7-4.5c1.2-0.8,2.5-1.5,3.9-1.9c1.2-0.3,2.4-0.5,3.6-0.5c1.2-0.2,2.4-0.3,3.6-0.3c7.6-0.1,17.2,4.1,23.1-2.1
		c-0.2,0-0.3,0-0.4,0.1C169.7,1443.7,160.9,1436.8,153.6,1436.1z"/>
	<path class="st24" d="M932.4,1086.4c2.3,0.8,4.6,1.7,6.8,2.7c1.5,0.3,3,0.6,4.3,1.1c6.2,2.2,8.5,7.1,10.5,12.5
		c0.5,1.1,0.9,2.2,1.2,3.4c1.3,3.4,5.5,5.9,9,5c3.9-3,8-5.7,12.3-7.8c2.1-1.5,4.3-2.7,6.8-3.3c2.1-0.5,4.2-0.8,6.3-0.9
		c2-0.3,4.1-0.5,6.3-0.6c13.2-0.2,29.9,7.3,40.3-3.5c-0.3,0-0.5,0-0.8,0.1c-12.8,4.7-28.1-7.4-40.8-8.7c-7.2-0.7-15-0.8-21.8,2.2
		c-3.5,1.5-6.1,3.6-9.1,5.9c-0.3,0.2-0.6,0.4-0.8,0.7c-5.3-9.1-12.8-15.6-24.9-17c-8-1-15.7-2-23.3-5.2c-5.4-2.3-10.7-5.7-16.7-5.6
		c-0.1,0-0.2,0-0.4,0C905.1,1078.7,919.6,1081.9,932.4,1086.4z"/>
	<path class="st24" d="M1059.6,1230.1c-3.7,0.5-7.5,1.5-10.5,3.9c-1.5,1.2-2.6,2.6-3.7,4.1c-0.1,0.1-0.2,0.3-0.3,0.4
		c-3.8-3.9-8.3-6.1-14.5-5.2c-4.1,0.6-8,1-12.2,0.4c-3-0.4-6.1-1.4-9-0.7c-0.1,0-0.1,0-0.2,0.1c5.1,4.6,12.7,4.4,19.6,4.9
		c1.2,0.1,2.5,0.2,3.7,0.5c0.8-0.1,1.5-0.1,2.3,0c3.3,0.3,5.1,2.4,6.8,4.8c0.4,0.5,0.7,1,1,1.5c1.1,1.5,3.4,2.2,5.1,1.3
		c1.6-2,3.2-3.8,5.1-5.4c0.9-1,1.8-1.9,2.9-2.5c1-0.5,2-0.9,3-1.3c1-0.4,2-0.8,3-1.1c6.6-1.8,15.8-0.2,19.5-6.9
		c-0.1,0-0.2,0.1-0.4,0.1C1075.1,1233.2,1066,1229.2,1059.6,1230.1z"/>
	<path class="st24" d="M822.3,1221.9c-0.2,0.1-0.3,0.2-0.5,0.4c-2.4-4.8-6.2-8.3-12.3-9.3c-4.1-0.7-8-1.5-11.8-3.3
		c-2.7-1.3-5.3-3.2-8.4-3.3c-0.1,0-0.1,0-0.2,0c3.5,6,10.9,8,17.2,10.6c1.2,0.4,2.3,0.9,3.4,1.5c0.7,0.2,1.5,0.4,2.1,0.7
		c3.1,1.3,4.2,3.8,5.1,6.7c0.2,0.6,0.4,1.2,0.5,1.7c0.6,1.8,2.6,3.1,4.5,2.8c2.1-1.4,4.2-2.7,6.5-3.7c1.1-0.7,2.3-1.2,3.6-1.5
		c1.1-0.2,2.2-0.3,3.2-0.3c1.1-0.1,2.1-0.2,3.2-0.1c6.8,0.2,15.1,4.5,20.7-0.7c-0.1,0-0.3,0-0.4,0c-6.7,2.1-14.2-4.5-20.6-5.5
		c-3.7-0.6-7.6-0.8-11.2,0.5C825.3,1219.8,823.9,1220.8,822.3,1221.9z"/>
	<path class="st24" d="M671.6,1134.7c1.2,0,2.4,0.2,3.6,0.4c5.2,1.1,7.6,4.7,9.8,8.9c0.5,0.8,0.9,1.7,1.3,2.6c1.4,2.5,5,4.1,7.8,3
		c2.8-2.8,5.7-5.4,9-7.5c1.5-1.4,3.2-2.6,5.1-3.4c1.6-0.6,3.3-1.1,4.9-1.4c1.6-0.4,3.2-0.8,4.9-1.1c10.6-1.6,24.7,2.6,31.8-7.1
		c-0.2,0-0.4,0.1-0.6,0.2c-9.7,5.2-23.2-2.9-33.5-2.5c-5.9,0.2-12.1,0.9-17.1,4c-2.6,1.6-4.5,3.6-6.6,5.7c-0.2,0.2-0.4,0.4-0.6,0.6
		c-5.2-6.7-11.9-11.1-21.7-10.9c-6.5,0.1-12.8,0.1-19.2-1.6c-4.6-1.2-9.2-3.4-13.9-2.7c-0.2,0-0.2,0-0.3,0.1
		c7.2,8.2,19.1,9.2,29.8,11.4C667.8,1133.6,669.7,1134.1,671.6,1134.7z"/>
	<path class="st24" d="M786.3,1169.5c1-0.1,2-0.1,3,0c0.6-0.1,1.2-0.2,1.8-0.3c2.7-0.1,4.4,1.4,6,3.2c0.4,0.4,0.7,0.7,1,1.1
		c1,1.1,3,1.4,4.2,0.5c1.1-1.7,2.2-3.4,3.5-4.9c0.6-0.9,1.2-1.7,2.1-2.3c0.7-0.5,1.5-0.9,2.2-1.3c0.7-0.4,1.5-0.9,2.3-1.2
		c5-2.1,12.6-1.9,14.8-7.6c-0.1,0-0.2,0.1-0.3,0.2c-4.2,3.8-11.8,1.6-16.9,3c-2.9,0.9-5.9,2-8,4.2c-1.1,1.1-1.7,2.3-2.5,3.7
		c-0.1,0.1-0.2,0.3-0.2,0.4c-3.4-2.7-7.3-3.9-12.1-2.6c-3.2,0.9-6.3,1.7-9.7,1.7c-2.4,0-5-0.5-7.2,0.4c-0.1,0-0.1,0-0.2,0.1
		C774.8,1170.9,780.8,1169.9,786.3,1169.5z"/>
	<path class="st24" d="M606.7,1176.5c0.9,0.2,1.9,0.5,2.9,0.9c0.6,0.1,1.2,0.2,1.8,0.3c2.6,0.7,3.7,2.6,4.7,4.8
		c0.2,0.5,0.5,0.9,0.6,1.4c0.7,1.3,2.4,2.2,3.9,1.7c1.5-1.4,3.1-2.6,4.8-3.6c0.8-0.7,1.7-1.3,2.7-1.6c0.8-0.3,1.7-0.5,2.6-0.6
		c0.8-0.2,1.6-0.4,2.6-0.5c5.4-0.5,12.5,1.9,16.4-2.8c-0.1,0-0.2,0-0.3,0.1c-5.1,2.4-11.8-2.1-17-2.1c-3-0.1-6.2,0.2-8.9,1.6
		c-1.4,0.7-2.3,1.7-3.5,2.7c-0.1,0.1-0.2,0.2-0.3,0.3c-2.5-3.6-5.8-6-10.8-6.1c-3.3-0.1-6.6-0.3-9.8-1.3c-2.3-0.7-4.6-2-7.1-1.7
		c0,0-0.1,0-0.1,0C595.2,1174.4,601.3,1175.2,606.7,1176.5z"/>
</g>
</svg>
